<?xml version="1.0" encoding="utf-8"?>
<!-- Generator: Adobe Illustrator 25.1.0, SVG Export Plug-In . SVG Version: 6.00 Build 0)  -->
<svg version="1.1" id="レイヤー_1" xmlns="http://www.w3.org/2000/svg" xmlns:xlink="http://www.w3.org/1999/xlink" x="0px"
	 y="0px" viewBox="0 0 32 32" style="enable-background:new 0 0 32 32;" xml:space="preserve">
<style type="text/css">
	.st0{fill:#FFFFFF;}
</style>
<g id="Layer_20">
	<path class="st0" d="M16,22c-3.3,0-6-2.7-6-6s2.7-6,6-6s6,2.7,6,6S19.3,22,16,22z M16,12c-2.2,0-4,1.8-4,4s1.8,4,4,4s4-1.8,4-4
		S18.2,12,16,12z"/>
	<path class="st0" d="M21,31H11c-2.2,0-4-1.8-4-4v-2.5c0-0.4,0.3-0.8,0.6-0.9l3.6-1.5c0.5-0.2,1.1,0,1.3,0.5s0,1.1-0.5,1.3
		c0,0-0.1,0-0.1,0l-3,1.2V27c0,1.1,0.9,2,2,2h10c1.1,0,2-0.9,2-2v-1.9l-3-1.2c-0.5-0.2-0.8-0.8-0.6-1.3c0.2-0.5,0.8-0.8,1.3-0.6l0,0
		l3.6,1.5c0.4,0.2,0.6,0.5,0.6,0.9V27C25,29.2,23.2,31,21,31C21,31,21,31,21,31z"/>
	<path class="st0" d="M9,11c-2.8,0-5-2.2-5-5s2.2-5,5-5s5,2.2,5,5S11.8,11,9,11z M9,3C7.3,3,6,4.3,6,6s1.3,3,3,3s3-1.3,3-3
		S10.7,3,9,3z"/>
	<path class="st0" d="M8,19.4H5c-2.2,0-4-1.8-4-4v-1.7c0-0.4,0.2-0.8,0.6-0.9l3.2-1.2c0.5-0.2,1.1,0,1.3,0.5c0.2,0.5,0,1.1-0.6,1.3
		c0,0,0,0,0,0l-2.6,1v1.1c0,1.1,0.9,2,2,2h3c0.6,0,1,0.4,1,1S8.6,19.4,8,19.4z"/>
	<path class="st0" d="M23,11c-2.8,0-5-2.2-5-5s2.2-5,5-5s5,2.2,5,5S25.8,11,23,11z M23,3c-1.7,0-3,1.3-3,3s1.3,3,3,3s3-1.3,3-3
		S24.7,3,23,3z"/>
	<path class="st0" d="M27,19.4h-3c-0.6,0-1-0.4-1-1s0.4-1,1-1h3c1.1,0,2-0.9,2-2v-1.1l-2.5-1c-0.5-0.2-0.8-0.8-0.6-1.3c0,0,0,0,0,0
		c0.2-0.5,0.8-0.8,1.3-0.6l3.2,1.2c0.4,0.2,0.6,0.5,0.6,0.9v1.8C31,17.6,29.2,19.4,27,19.4C27,19.4,27,19.4,27,19.4z"/>
</g>
</svg>
