<?xml version="1.0" encoding="utf-8"?>
<!-- Generator: Adobe Illustrator 22.0.1, SVG Export Plug-In . SVG Version: 6.00 Build 0)  -->
<svg version="1.1" id="レイヤー_1" xmlns="http://www.w3.org/2000/svg" xmlns:xlink="http://www.w3.org/1999/xlink" x="0px"
	 y="0px" viewBox="0 0 1280 1024" style="enable-background:new 0 0 1280 1024;" xml:space="preserve">
<style type="text/css">
	.st0{fill:#050000;}
	.st1{fill:#231815;}
	.st2{fill:#040000;}
	.st3{fill:#535253;}
</style>
<g>
	<path class="st0" d="M119.3,621.5l-16.7,85.3H83.9l-5.1-31.1c-1.3-7.9-2.4-16.7-3.4-26.9h-0.2c-1.4,10.2-2.6,18.8-4.2,27l-5.8,31
		H46.9l-15.7-85.3h18.5l4.4,33.3c1.3,9.9,2.4,20.5,3.5,29.9h0.2c1.2-9.8,3-19.8,4.6-30.1l5.5-33.1h16.8l5.1,33.8
		c1.5,9.8,2.7,19,3.7,29.3h0.3c1-10.3,2.2-19.9,3.6-29.9l4.5-33.1H119.3z"/>
	<path class="st0" d="M188.2,704.5c-5.1,2.3-11.8,3.4-18.4,3.4c-17.5,0-27.4-11.7-27.4-31.1c0-17.8,9.3-33.3,25.9-33.3
		c13.3,0,22.6,9.9,22.6,31c0,3-0.1,6.1-0.5,8.2h-31.4c0.4,7.4,6.3,10.8,13.5,10.8c5,0,9.4-1,13.4-2.4L188.2,704.5z M175.1,669.3
		c0-5.5-1.6-12.5-7.6-12.5c-5.9,0-8.2,7.3-8.5,12.5H175.1z"/>
	<path class="st0" d="M242.6,651.3c3-4.6,7.7-7.8,14.2-7.8c12.4,0,19.8,13.1,19.8,30.9c0,22.3-10.7,33.7-22.4,33.7
		c-5.4,0-10.4-2.2-13.9-9.1h-0.2l-0.9,7.8h-14.7c0.2-4.9,0.4-12.1,0.4-19V618h17.4v33.3H242.6z M242.3,682.1c0,7,4,10.5,7.7,10.5
		c5.8,0,9.1-6.1,9.1-17.1c0-9.7-3-16.4-9.1-16.4c-3.9,0-7.7,3.9-7.7,10.6V682.1z"/>
	<path class="st0" d="M351.9,640.1c-2.8-1.5-7.3-3.5-13.5-3.5c-6.7,0-10,3.6-10,7.8c0,4.7,3.2,7.1,12.5,11.8
		c12.2,6.1,17.2,14.5,17.2,25.1c0,15.6-10.6,26.6-29.1,26.6c-7.7,0-15.3-2.2-18.9-4.4l3-16.3c4.1,2.3,10.5,4.4,16.6,4.4
		c7.3,0,10.9-3.5,10.9-8.6c0-5.2-3.5-8.1-11.4-12c-12.1-6.2-18.3-14.6-18.3-24.7c0-14.5,9.9-25.8,27.6-25.8c7.3,0,13,1.8,16.6,3.8
		L351.9,640.1z"/>
	<path class="st0" d="M394.5,633.3l17.2-5.4v16.8h11.6v14h-11.6v23.4c0,7.3,2.1,9.9,6.2,9.9c2,0,3.1-0.1,4.5-0.6l0.1,15
		c-2.2,0.8-6,1.4-10.7,1.4c-17.1,0-17.4-16.3-17.4-23.4v-25.8h-6.8v-14h6.8V633.3z"/>
	<path class="st0" d="M505.1,686.8c0,7.6,0.3,14.5,0.5,20h-15l-0.8-7.7h-0.3c-2.4,4-7.4,8.9-15.5,8.9c-11.3,0-17.6-8.5-17.6-26.4
		v-37h17.4v34.2c0,8.4,2.1,13.2,6.9,13.2c3.6,0,7-3.1,7-9.4v-38.1h17.4V686.8z"/>
	<path class="st0" d="M590.8,687.8c0,6.8,0.2,14,0.4,19H576l-0.8-8.1h-0.3c-3,5.9-8.7,9.3-14.6,9.3c-12.8,0-21.1-13.7-21.1-32
		c0-21.1,10.3-32.6,21.9-32.6c5.9,0,10.2,2.7,12.1,6.4h0.3v-32h17.4V687.8z M573.4,670.1c0-8.6-4.5-11.1-7.5-11.1
		c-6.3,0-9.2,7.7-9.2,17.1c0,10.7,3.8,16.3,9.1,16.3c3.3,0,7.6-2.3,7.6-10.8V670.1z"/>
	<path class="st0" d="M675.1,644.7l-12.2,44.2c-5.7,19.1-10.4,29.6-16.4,36.4c-5.6,6.1-11.9,8.5-15.5,9.2l-4.3-16.6
		c7.2-1.7,14.1-9.7,14.1-13.4c0-0.7-0.2-1.5-0.7-2.8L622,644.7h19.1l6.5,30.5c0.8,3.5,1.6,7.5,2.1,10.8h0.3
		c0.6-3.3,1.2-7.3,1.8-10.7l5.3-30.6H675.1z"/>
	<path class="st0" d="M746.5,640.1c-2.8-1.5-7.3-3.5-13.5-3.5c-6.7,0-10,3.6-10,7.8c0,4.7,3.2,7.1,12.5,11.8
		c12.2,6.1,17.2,14.5,17.2,25.1c0,15.6-10.6,26.6-29.1,26.6c-7.7,0-15.3-2.2-18.9-4.4l3-16.3c4.1,2.3,10.5,4.4,16.6,4.4
		c7.3,0,10.9-3.5,10.9-8.6c0-5.2-3.5-8.1-11.4-12c-12.1-6.2-18.3-14.6-18.3-24.7c0-14.5,9.9-25.8,27.6-25.8c7.3,0,13,1.8,16.6,3.8
		L746.5,640.1z"/>
	<path class="st0" d="M829.4,692.1c0,5.5,0.2,10.9,0.9,14.7h-15.6l-1-6h-0.3c-3.4,5-8.6,7.2-14.3,7.2c-10.1,0-16.7-8.6-16.7-19.1
		c0-16.4,13.2-23.5,29.6-23.6c0-4.7-1.9-8.2-8.9-8.2c-5.2,0-10.2,1.8-13.7,4.2l-3.2-12.6c3.6-2.2,10.8-5.3,20.4-5.3
		c18.4,0,22.9,13,22.9,26.8V692.1z M812.5,677.5c-7.2,0-13.4,2.3-13.4,9.5c0,5.1,2.8,7.3,5.8,7.3c3.6,0,7.5-2.9,7.5-8.7V677.5z"/>
	<path class="st0" d="M881.7,652.5c3.3-5.7,8.7-9.1,15.4-9.1c12.3,0,20.7,13.2,20.7,31.8c0,22.7-11.4,32.8-22.3,32.8
		c-5.6,0-9.9-2.9-11.9-6.3h-0.3v29.8H866v-66.3c0-7.7-0.2-14.6-0.4-20.5h15l0.9,7.8H881.7z M883.4,681.9c0,6.3,3.2,10.9,7.6,10.9
		c6.1,0,9.2-7.2,9.2-16.9c0-10.4-3.2-16.8-9-16.8c-4.1,0-7.8,4.1-7.8,10.7V681.9z"/>
	<path class="st0" d="M967.6,652.5c3.3-5.7,8.7-9.1,15.4-9.1c12.3,0,20.7,13.2,20.7,31.8c0,22.7-11.4,32.8-22.3,32.8
		c-5.6,0-9.9-2.9-11.9-6.3h-0.3v29.8h-17.4v-66.3c0-7.7-0.2-14.6-0.4-20.5h15l0.9,7.8H967.6z M969.2,681.9c0,6.3,3.2,10.9,7.6,10.9
		c6.1,0,9.2-7.2,9.2-16.9c0-10.4-3.2-16.8-9-16.8c-4.1,0-7.8,4.1-7.8,10.7V681.9z"/>
	<path class="st0" d="M1086.9,675.4c0,24.2-13.9,32.7-26.1,32.7c-15.4,0-26-11.9-26-31.9c0-20.9,11.3-32.7,26.6-32.7
		C1077.3,643.5,1086.9,656.7,1086.9,675.4z M1061,657.6c-6.5,0-8.6,9.5-8.6,18.1c0,10.4,2.7,18.2,8.6,18.2c5.6,0,8.3-8.3,8.3-18.2
		C1069.3,666.5,1067,657.6,1061,657.6z"/>
	<path class="st0" d="M1153.8,662.4c-1.2-0.3-2.5-0.4-4.3-0.4c-4.4,0-8.6,2.3-10.1,7.8c-0.5,1.4-0.7,3.6-0.7,5.8v31.1h-17.4v-42.1
		c0-8.2-0.2-14.5-0.4-20.1h14.9l0.7,10.4h0.4c2.8-8.2,8.6-11.6,13.2-11.6c1.7,0,2.6,0.1,3.7,0.3V662.4z"/>
	<path class="st0" d="M1235.2,675.4c0,24.2-13.9,32.7-26.1,32.7c-15.4,0-26-11.9-26-31.9c0-20.9,11.3-32.7,26.6-32.7
		C1225.6,643.5,1235.2,656.7,1235.2,675.4z M1209.3,657.6c-6.5,0-8.6,9.5-8.6,18.1c0,10.4,2.7,18.2,8.6,18.2c5.6,0,8.3-8.3,8.3-18.2
		C1217.6,666.5,1215.2,657.6,1209.3,657.6z"/>
	<g>
		<path class="st1" d="M57.5,765.8l-6.2,23.4h-2.5l-2.9-12.5c-0.7-3.1-1.2-5.4-1.5-7.8h-0.1c-0.4,2.3-0.9,4.7-1.8,7.7l-3.3,12.6
			h-2.5l-5.6-23.4h2.6l2.8,12.2c0.7,3,1.3,5.8,1.7,8.1h0.1c0.3-2.4,1.1-5.1,1.8-8.2l3.1-12.2h2.5l2.8,12.1c0.6,2.8,1.3,5.6,1.6,8.2
			h0.1c0.4-2.7,1.1-5.3,1.8-8.2l3.1-12.1H57.5z"/>
		<path class="st1" d="M76.1,788.5c-0.9,0.5-2.6,1-5.1,1c-4.7,0-7.5-3.5-7.5-8.5c0-5.3,2.8-9.1,7.2-9.1c5,0,6.2,4.7,6.2,7.7
			c0,0.6,0,1-0.1,1.4H66c0,4.7,2.6,6.4,5.5,6.4c2,0,3.2-0.4,4.2-0.9L76.1,788.5z M74.6,779.2c0-2.3-0.9-5.2-4.1-5.2
			c-3,0-4.3,2.9-4.5,5.2H74.6z"/>
		<path class="st1" d="M107,785.2c0,1.4,0,2.8,0.2,4H105l-0.2-2.2h-0.1c-0.8,1.3-2.5,2.5-4.8,2.5c-3.1,0-4.7-2.3-4.7-4.8
			c0-4,3.4-6.2,9.4-6.2c0-1.4,0-4.6-3.7-4.6c-1.4,0-2.8,0.4-3.9,1.2l-0.6-1.8c1.3-0.9,3.1-1.4,4.9-1.4c4.6,0,5.7,3.4,5.7,6.7V785.2z
			 M104.6,780.5c-3.1,0-6.9,0.5-6.9,4c0,2.2,1.3,3.1,2.8,3.1c2.4,0,4.1-1.9,4.1-3.9V780.5z"/>
		<path class="st1" d="M123.6,774.6c-0.3,0-0.5-0.1-0.9-0.1c-2.7,0-4,2.7-4,5.6v9.1h-2.5v-11.8c0-1.8,0-3.4-0.1-5h2.2l0.1,3.2h0.1
			c0.7-2.1,2.4-3.6,4.4-3.6c0.3,0,0.5,0.1,0.7,0.1V774.6z"/>
		<path class="st1" d="M142.3,788.5c-0.9,0.5-2.6,1-5.1,1c-4.7,0-7.5-3.5-7.5-8.5c0-5.3,2.8-9.1,7.2-9.1c5,0,6.2,4.7,6.2,7.7
			c0,0.6,0,1-0.1,1.4h-11c0,4.7,2.6,6.4,5.5,6.4c2,0,3.2-0.4,4.2-0.9L142.3,788.5z M140.7,779.2c0-2.3-0.9-5.2-4.1-5.2
			c-3,0-4.3,2.9-4.5,5.2H140.7z"/>
		<path class="st1" d="M173.2,785.2c0,1.4,0,2.8,0.2,4h-2.3l-0.2-2.2h-0.1c-0.8,1.3-2.5,2.5-4.8,2.5c-3.1,0-4.7-2.3-4.7-4.8
			c0-4,3.4-6.2,9.4-6.2c0-1.4,0-4.6-3.7-4.6c-1.4,0-2.8,0.4-3.9,1.2l-0.6-1.8c1.3-0.9,3.1-1.4,4.9-1.4c4.6,0,5.7,3.4,5.7,6.7V785.2z
			 M170.8,780.5c-3.1,0-6.9,0.5-6.9,4c0,2.2,1.3,3.1,2.8,3.1c2.4,0,4.1-1.9,4.1-3.9V780.5z"/>
		<path class="st1" d="M201.3,775c-0.6-0.4-1.7-1-3.1-1c-1.8,0-2.7,1.1-2.7,2.5c0,1.4,0.9,2.1,3,3c2.6,1.1,4.1,2.5,4.1,5
			c0,3-2.2,5-5.7,5c-1.6,0-3.1-0.5-4.2-1.1l0.7-2c0.9,0.5,2.3,1.1,3.6,1.1c2.2,0,3.2-1.2,3.2-2.7c0-1.6-0.9-2.4-3-3.3
			c-2.7-1.1-4.1-2.7-4.1-4.7c0-2.6,2-4.8,5.3-4.8c1.5,0,2.8,0.5,3.7,1L201.3,775z"/>
		<path class="st1" d="M221.6,788.6c-0.7,0.4-2.3,1-4.4,1c-4.6,0-7.7-3.4-7.7-8.6c0-5.2,3.3-9,8.3-9c1.8,0,3.3,0.6,3.9,0.9l-0.6,2.1
			c-0.7-0.4-1.7-0.9-3.3-0.9c-3.7,0-5.7,3.1-5.7,6.7c0,4.1,2.3,6.6,5.6,6.6c1.6,0,2.7-0.5,3.5-0.8L221.6,788.6z"/>
		<path class="st1" d="M242.4,789.2h-2.5v-9.9c0-2.7-0.9-5.1-3.7-5.1c-1.9,0-4.3,1.6-4.3,4.7v10.3h-2.5v-24.6h2.5V775h0.1
			c1.1-1.8,3-3,5-3s5.4,1.3,5.4,7V789.2z"/>
		<path class="st1" d="M265.3,780.7c0,6.3-4,8.9-7.6,8.9c-4.1,0-7.3-3.2-7.3-8.7c0-5.7,3.4-8.9,7.6-8.9
			C262.4,772,265.3,775.5,265.3,780.7z M257.9,774c-3.5,0-4.9,3.6-4.9,6.8c0,3.7,2,6.7,4.9,6.7c2.9,0,5-3,5-6.8
			C262.8,777.8,261.4,774,257.9,774z"/>
		<path class="st1" d="M287.2,780.7c0,6.3-4,8.9-7.6,8.9c-4.1,0-7.3-3.2-7.3-8.7c0-5.7,3.4-8.9,7.6-8.9
			C284.2,772,287.2,775.5,287.2,780.7z M279.7,774c-3.5,0-4.9,3.6-4.9,6.8c0,3.7,2,6.7,4.9,6.7c2.9,0,5-3,5-6.8
			C284.7,777.8,283.3,774,279.7,774z"/>
		<path class="st1" d="M297.8,789.2h-2.5v-24.6h2.5V789.2z"/>
		<path class="st1" d="M320.8,775.3c1.1-2.1,3-3.2,5.5-3.2c3.8,0,6.6,3.4,6.6,8.6c0,6.2-3.5,9-7,9c-2.1,0-3.9-1-4.9-2.7h-0.1v9.2
			h-2.5v-18.3c0-2.2-0.1-3.9-0.1-5.4h2.2L320.8,775.3L320.8,775.3z M320.9,782.5c0,3.3,2.3,5,4.5,5c3.2,0,4.9-2.8,4.9-6.8
			c0-3.5-1.7-6.6-4.8-6.6c-2.8,0-4.6,2.8-4.6,5.2V782.5z"/>
		<path class="st1" d="M348.4,774.6c-0.3,0-0.5-0.1-0.9-0.1c-2.7,0-4,2.7-4,5.6v9.1H341v-11.8c0-1.8,0-3.4-0.1-5h2.2l0.1,3.2h0.1
			c0.7-2.1,2.4-3.6,4.4-3.6c0.3,0,0.5,0.1,0.7,0.1V774.6z"/>
		<path class="st1" d="M369.4,780.7c0,6.3-4,8.9-7.6,8.9c-4.1,0-7.3-3.2-7.3-8.7c0-5.7,3.4-8.9,7.6-8.9
			C366.5,772,369.4,775.5,369.4,780.7z M362,774c-3.5,0-4.9,3.6-4.9,6.8c0,3.7,2,6.7,4.9,6.7c2.9,0,5-3,5-6.8
			C366.9,777.8,365.5,774,362,774z"/>
		<path class="st1" d="M390,772.4l-6.1,16.8h-2.3l-6-16.8h2.6l3.2,9.8c0.5,1.5,0.9,2.9,1.3,4.3h0.1c0.4-1.4,0.8-2.8,1.3-4.3l3.2-9.7
			H390z"/>
		<path class="st1" d="M398.4,769.5c-0.9,0-1.6-0.8-1.6-1.8c0-1,0.7-1.7,1.6-1.7c1,0,1.6,0.8,1.6,1.7
			C400,768.8,399.3,769.5,398.4,769.5z M399.6,789.2h-2.5v-16.8h2.5V789.2z"/>
		<path class="st1" d="M422,785.1c0,1.4,0.1,3,0.1,4.2h-2.2l-0.1-2.9h-0.1c-0.8,1.8-2.7,3.2-5.3,3.2c-3.7,0-6.6-3.4-6.6-8.5
			c0-5.7,3.2-9,7-9c2.4,0,4,1.2,4.7,2.6h0.1v-10.1h2.5V785.1z M419.5,779.1c0-3.4-2.3-5-4.4-5c-3,0-4.9,3-4.9,6.8
			c0,3.5,1.6,6.6,4.8,6.6c2.7,0,4.4-2.4,4.4-5.1V779.1z"/>
		<path class="st1" d="M432.5,769.5c-0.9,0-1.6-0.8-1.6-1.8c0-1,0.7-1.7,1.6-1.7c1,0,1.6,0.8,1.6,1.7
			C434.1,768.8,433.5,769.5,432.5,769.5z M433.8,789.2h-2.5v-16.8h2.5V789.2z"/>
		<path class="st1" d="M456,789.2h-2.5v-9.9c0-2.7-0.9-5.1-3.8-5.1c-2.1,0-4.2,1.8-4.2,4.8v10.3h-2.5v-12.5c0-1.7-0.1-3-0.1-4.3h2.2
			l0.1,2.7h0.1c0.8-1.6,2.7-3.1,5.2-3.1c2,0,5.5,1.3,5.5,7V789.2z"/>
		<path class="st1" d="M478.3,772.4c-0.1,1.2-0.1,2.6-0.1,4.6v9.8c0,2.9-0.1,9.6-7.7,9.6c-1.8,0-3.9-0.5-5.1-1.3l0.7-2
			c1,0.6,2.6,1.3,4.5,1.3c3,0,5.1-1.6,5.1-6.1v-2h-0.1c-0.8,1.6-2.5,2.9-5,2.9c-3.9,0-6.6-3.5-6.6-8.3c0-5.8,3.5-8.9,7-8.9
			c2.8,0,4.2,1.5,4.9,2.9h0.1l0.1-2.5H478.3z M475.7,778.9c0-2.9-2-4.8-4.3-4.8c-2.8,0-4.8,2.6-4.8,6.7c0,3.6,1.7,6.4,4.8,6.4
			c1.8,0,4.3-1.4,4.3-4.9V778.9z"/>
		<path class="st1" d="M501.1,775.3c1.1-2.1,3-3.2,5.5-3.2c3.8,0,6.6,3.4,6.6,8.6c0,6.2-3.5,9-7,9c-2.1,0-3.9-1-4.9-2.7h-0.1v9.2
			h-2.5v-18.3c0-2.2-0.1-3.9-0.1-5.4h2.2L501.1,775.3L501.1,775.3z M501.3,782.5c0,3.3,2.3,5,4.5,5c3.2,0,4.9-2.8,4.9-6.8
			c0-3.5-1.7-6.6-4.8-6.6c-2.8,0-4.6,2.8-4.6,5.2V782.5z"/>
		<path class="st1" d="M528.7,774.6c-0.3,0-0.5-0.1-0.9-0.1c-2.7,0-4,2.7-4,5.6v9.1h-2.5v-11.8c0-1.8,0-3.4-0.1-5h2.2l0.1,3.2h0.1
			c0.7-2.1,2.4-3.6,4.4-3.6c0.3,0,0.5,0.1,0.7,0.1V774.6z"/>
		<path class="st1" d="M546.6,785.2c0,1.4,0,2.8,0.2,4h-2.3l-0.2-2.2h-0.1c-0.8,1.3-2.5,2.5-4.8,2.5c-3.1,0-4.7-2.3-4.7-4.8
			c0-4,3.4-6.2,9.4-6.2c0-1.4,0-4.6-3.7-4.6c-1.4,0-2.8,0.4-3.9,1.2l-0.6-1.8c1.3-0.9,3.1-1.4,4.9-1.4c4.6,0,5.7,3.4,5.7,6.7V785.2z
			 M544.2,780.5c-3.1,0-6.9,0.5-6.9,4c0,2.2,1.3,3.1,2.8,3.1c2.4,0,4.1-1.9,4.1-3.9V780.5z"/>
		<path class="st1" d="M566.7,788.6c-0.7,0.4-2.3,1-4.4,1c-4.6,0-7.7-3.4-7.7-8.6c0-5.2,3.3-9,8.3-9c1.8,0,3.3,0.6,3.9,0.9l-0.6,2.1
			c-0.7-0.4-1.7-0.9-3.3-0.9c-3.7,0-5.7,3.1-5.7,6.7c0,4.1,2.3,6.6,5.6,6.6c1.6,0,2.7-0.5,3.5-0.8L566.7,788.6z"/>
		<path class="st1" d="M575.2,769.4l2.4-0.9v3.9h4.2v2h-4.2v9.7c0,2.1,0.6,3.3,2.2,3.3c0.7,0,1.2-0.1,1.7-0.2l0.1,2
			c-0.5,0.2-1.4,0.4-2.4,0.4c-3.9,0-4-3.7-4-5.5v-9.6h-2.5v-2h2.5V769.4z"/>
		<path class="st1" d="M590.7,769.5c-0.9,0-1.6-0.8-1.6-1.8c0-1,0.7-1.7,1.6-1.7c1,0,1.6,0.8,1.6,1.7
			C592.3,768.8,591.6,769.5,590.7,769.5z M591.9,789.2h-2.5v-16.8h2.5V789.2z"/>
		<path class="st1" d="M612.1,788.6c-0.7,0.4-2.3,1-4.4,1c-4.6,0-7.7-3.4-7.7-8.6c0-5.2,3.3-9,8.3-9c1.8,0,3.3,0.6,3.9,0.9l-0.6,2.1
			c-0.7-0.4-1.7-0.9-3.3-0.9c-3.7,0-5.7,3.1-5.7,6.7c0,4.1,2.3,6.6,5.6,6.6c1.6,0,2.7-0.5,3.5-0.8L612.1,788.6z"/>
		<path class="st1" d="M630.6,785.2c0,1.4,0,2.8,0.2,4h-2.3l-0.2-2.2h-0.1c-0.8,1.3-2.5,2.5-4.8,2.5c-3.1,0-4.7-2.3-4.7-4.8
			c0-4,3.4-6.2,9.4-6.2c0-1.4,0-4.6-3.7-4.6c-1.4,0-2.8,0.4-3.9,1.2l-0.6-1.8c1.3-0.9,3.1-1.4,4.9-1.4c4.6,0,5.7,3.4,5.7,6.7V785.2z
			 M628.2,780.5c-3.1,0-6.9,0.5-6.9,4c0,2.2,1.3,3.1,2.8,3.1c2.4,0,4.1-1.9,4.1-3.9V780.5z"/>
		<path class="st1" d="M642.2,789.2h-2.5v-24.6h2.5V789.2z"/>
		<path class="st1" d="M675.3,772.4l-6.1,16.8h-2.3l-6-16.8h2.6l3.2,9.8c0.5,1.5,0.9,2.9,1.3,4.3h0.1c0.4-1.4,0.8-2.8,1.3-4.3
			l3.2-9.7H675.3z"/>
		<path class="st1" d="M696.2,780.7c0,6.3-4,8.9-7.6,8.9c-4.1,0-7.3-3.2-7.3-8.7c0-5.7,3.4-8.9,7.6-8.9
			C693.3,772,696.2,775.5,696.2,780.7z M688.8,774c-3.5,0-4.9,3.6-4.9,6.8c0,3.7,2,6.7,4.9,6.7c2.9,0,5-3,5-6.8
			C693.7,777.8,692.3,774,688.8,774z"/>
		<path class="st1" d="M715.3,788.6c-0.7,0.4-2.3,1-4.4,1c-4.6,0-7.7-3.4-7.7-8.6c0-5.2,3.3-9,8.3-9c1.8,0,3.3,0.6,3.9,0.9l-0.6,2.1
			c-0.7-0.4-1.7-0.9-3.3-0.9c-3.7,0-5.7,3.1-5.7,6.7c0,4.1,2.3,6.6,5.6,6.6c1.6,0,2.7-0.5,3.5-0.8L715.3,788.6z"/>
		<path class="st1" d="M733.7,785.2c0,1.4,0,2.8,0.2,4h-2.3l-0.2-2.2h-0.1c-0.8,1.3-2.5,2.5-4.8,2.5c-3.1,0-4.7-2.3-4.7-4.8
			c0-4,3.4-6.2,9.4-6.2c0-1.4,0-4.6-3.7-4.6c-1.4,0-2.8,0.4-3.9,1.2l-0.6-1.8c1.3-0.9,3.1-1.4,4.9-1.4c4.6,0,5.7,3.4,5.7,6.7V785.2z
			 M731.3,780.5c-3.1,0-6.9,0.5-6.9,4c0,2.2,1.3,3.1,2.8,3.1c2.4,0,4.1-1.9,4.1-3.9V780.5z"/>
		<path class="st1" d="M743.6,769.4l2.4-0.9v3.9h4.2v2H746v9.7c0,2.1,0.6,3.3,2.2,3.3c0.7,0,1.2-0.1,1.7-0.2l0.2,2
			c-0.5,0.2-1.4,0.4-2.4,0.4c-3.9,0-4-3.7-4-5.5v-9.6h-2.5v-2h2.5V769.4z"/>
		<path class="st1" d="M759,769.5c-0.9,0-1.6-0.8-1.6-1.8c0-1,0.7-1.7,1.6-1.7c1,0,1.6,0.8,1.6,1.7C760.7,768.8,760,769.5,759,769.5
			z M760.3,789.2h-2.5v-16.8h2.5V789.2z"/>
		<path class="st1" d="M783.3,780.7c0,6.3-4,8.9-7.6,8.9c-4.1,0-7.3-3.2-7.3-8.7c0-5.7,3.4-8.9,7.6-8.9
			C780.4,772,783.3,775.5,783.3,780.7z M775.9,774c-3.5,0-4.9,3.6-4.9,6.8c0,3.7,2,6.7,4.9,6.7c2.9,0,5-3,5-6.8
			C780.8,777.8,779.4,774,775.9,774z"/>
		<path class="st1" d="M804.4,789.2h-2.5v-9.9c0-2.7-0.9-5.1-3.8-5.1c-2.1,0-4.2,1.8-4.2,4.8v10.3h-2.5v-12.5c0-1.7-0.1-3-0.1-4.3
			h2.2l0.2,2.7h0.1c0.8-1.6,2.7-3.1,5.2-3.1c2,0,5.4,1.3,5.4,7V789.2z"/>
		<path class="st1" d="M824.2,785.2c0,1.4,0,2.8,0.2,4h-2.3l-0.2-2.2h-0.1c-0.8,1.3-2.5,2.5-4.8,2.5c-3.1,0-4.7-2.3-4.7-4.8
			c0-4,3.4-6.2,9.4-6.2c0-1.4,0-4.6-3.7-4.6c-1.4,0-2.8,0.4-3.9,1.2l-0.6-1.8c1.3-0.9,3.1-1.4,4.9-1.4c4.6,0,5.7,3.4,5.7,6.7V785.2z
			 M821.7,780.5c-3,0-6.9,0.5-6.9,4c0,2.2,1.3,3.1,2.8,3.1c2.4,0,4.1-1.9,4.1-3.9V780.5z"/>
		<path class="st1" d="M835.8,789.2h-2.5v-24.6h2.5V789.2z"/>
		<path class="st1" d="M867,785.2c0,1.4,0,2.8,0.2,4H865l-0.2-2.2h-0.1c-0.8,1.3-2.5,2.5-4.8,2.5c-3.1,0-4.7-2.3-4.7-4.8
			c0-4,3.4-6.2,9.4-6.2c0-1.4,0-4.6-3.7-4.6c-1.4,0-2.8,0.4-3.9,1.2l-0.6-1.8c1.3-0.9,3.1-1.4,4.9-1.4c4.6,0,5.7,3.4,5.7,6.7V785.2z
			 M864.6,780.5c-3,0-6.9,0.5-6.9,4c0,2.2,1.3,3.1,2.8,3.1c2.4,0,4.1-1.9,4.1-3.9V780.5z"/>
		<path class="st1" d="M889.1,789.2h-2.5v-9.9c0-2.7-0.9-5.1-3.8-5.1c-2.1,0-4.2,1.8-4.2,4.8v10.3h-2.5v-12.5c0-1.7-0.1-3-0.1-4.3
			h2.2l0.2,2.7h0.1c0.8-1.6,2.7-3.1,5.2-3.1c2,0,5.4,1.3,5.4,7V789.2z"/>
		<path class="st1" d="M911.4,785.1c0,1.4,0.1,3,0.1,4.2h-2.2l-0.1-2.9h-0.1c-0.8,1.8-2.7,3.2-5.3,3.2c-3.7,0-6.6-3.4-6.6-8.5
			c0-5.7,3.2-9,7-9c2.4,0,4,1.2,4.7,2.6h0.1v-10.1h2.5V785.1z M908.9,779.1c0-3.4-2.3-5-4.4-5c-3,0-4.9,3-4.9,6.8
			c0,3.5,1.6,6.6,4.8,6.6c2.7,0,4.4-2.4,4.4-5.1V779.1z"/>
		<path class="st1" d="M932.6,769.4l2.4-0.9v3.9h4.2v2h-4.2v9.7c0,2.1,0.6,3.3,2.2,3.3c0.7,0,1.2-0.1,1.7-0.2l0.1,2
			c-0.5,0.2-1.4,0.4-2.4,0.4c-3.9,0-4-3.7-4-5.5v-9.6h-2.5v-2h2.5V769.4z"/>
		<path class="st1" d="M958.4,788.5c-0.9,0.5-2.6,1-5.1,1c-4.7,0-7.5-3.5-7.5-8.5c0-5.3,2.8-9.1,7.2-9.1c5,0,6.2,4.7,6.2,7.7
			c0,0.6,0,1-0.1,1.4h-11c0,4.7,2.6,6.4,5.5,6.4c2,0,3.2-0.4,4.2-0.9L958.4,788.5z M956.8,779.2c0-2.3-0.9-5.2-4.1-5.2
			c-3,0-4.3,2.9-4.5,5.2H956.8z"/>
		<path class="st1" d="M978.2,788.6c-0.7,0.4-2.3,1-4.4,1c-4.6,0-7.7-3.4-7.7-8.6c0-5.2,3.3-9,8.3-9c1.8,0,3.3,0.6,3.9,0.9l-0.6,2.1
			c-0.7-0.4-1.7-0.9-3.3-0.9c-3.7,0-5.7,3.1-5.7,6.7c0,4.1,2.3,6.6,5.6,6.6c1.6,0,2.7-0.5,3.5-0.8L978.2,788.6z"/>
		<path class="st1" d="M999,789.2h-2.5v-9.9c0-2.7-0.9-5.1-3.7-5.1c-1.9,0-4.3,1.6-4.3,4.7v10.3h-2.5v-24.6h2.5V775h0.1
			c1.1-1.8,3-3,5-3c2,0,5.4,1.3,5.4,7V789.2z"/>
		<path class="st1" d="M1021.1,789.2h-2.5v-9.9c0-2.7-0.9-5.1-3.8-5.1c-2.1,0-4.2,1.8-4.2,4.8v10.3h-2.5v-12.5c0-1.7-0.1-3-0.1-4.3
			h2.2l0.2,2.7h0.1c0.8-1.6,2.7-3.1,5.2-3.1c2,0,5.4,1.3,5.4,7V789.2z"/>
		<path class="st1" d="M1031.5,769.5c-0.9,0-1.6-0.8-1.6-1.8c0-1,0.7-1.7,1.6-1.7c1,0,1.6,0.8,1.6,1.7
			C1033.2,768.8,1032.5,769.5,1031.5,769.5z M1032.8,789.2h-2.5v-16.8h2.5V789.2z"/>
		<path class="st1" d="M1053,788.6c-0.7,0.4-2.3,1-4.4,1c-4.6,0-7.7-3.4-7.7-8.6c0-5.2,3.3-9,8.3-9c1.8,0,3.3,0.6,3.9,0.9l-0.6,2.1
			c-0.7-0.4-1.7-0.9-3.3-0.9c-3.7,0-5.7,3.1-5.7,6.7c0,4.1,2.3,6.6,5.6,6.6c1.6,0,2.7-0.5,3.5-0.8L1053,788.6z"/>
		<path class="st1" d="M1071.4,785.2c0,1.4,0,2.8,0.2,4h-2.3l-0.2-2.2h-0.1c-0.8,1.3-2.5,2.5-4.8,2.5c-3.1,0-4.7-2.3-4.7-4.8
			c0-4,3.4-6.2,9.4-6.2c0-1.4,0-4.6-3.7-4.6c-1.4,0-2.8,0.4-3.9,1.2l-0.6-1.8c1.3-0.9,3.1-1.4,4.9-1.4c4.6,0,5.7,3.4,5.7,6.7V785.2z
			 M1069,780.5c-3,0-6.9,0.5-6.9,4c0,2.2,1.3,3.1,2.8,3.1c2.4,0,4.1-1.9,4.1-3.9V780.5z"/>
		<path class="st1" d="M1083.1,789.2h-2.5v-24.6h2.5V789.2z"/>
		<path class="st1" d="M1104.4,769.4l2.4-0.9v3.9h4.2v2h-4.2v9.7c0,2.1,0.6,3.3,2.2,3.3c0.7,0,1.2-0.1,1.7-0.2l0.1,2
			c-0.5,0.2-1.4,0.4-2.4,0.4c-3.9,0-4-3.7-4-5.5v-9.6h-2.5v-2h2.5V769.4z"/>
		<path class="st1" d="M1126,774.6c-0.3,0-0.5-0.1-0.9-0.1c-2.7,0-4,2.7-4,5.6v9.1h-2.5v-11.8c0-1.8,0-3.4-0.1-5h2.2l0.1,3.2h0.1
			c0.7-2.1,2.4-3.6,4.4-3.6c0.3,0,0.5,0.1,0.7,0.1V774.6z"/>
		<path class="st1" d="M1143.9,785.2c0,1.4,0,2.8,0.2,4h-2.3l-0.2-2.2h-0.1c-0.8,1.3-2.5,2.5-4.8,2.5c-3.1,0-4.7-2.3-4.7-4.8
			c0-4,3.4-6.2,9.4-6.2c0-1.4,0-4.6-3.7-4.6c-1.4,0-2.8,0.4-3.9,1.2l-0.6-1.8c1.3-0.9,3.1-1.4,4.9-1.4c4.6,0,5.7,3.4,5.7,6.7V785.2z
			 M1141.5,780.5c-3,0-6.9,0.5-6.9,4c0,2.2,1.3,3.1,2.8,3.1c2.4,0,4.1-1.9,4.1-3.9V780.5z"/>
		<path class="st1" d="M1154.3,769.5c-0.9,0-1.6-0.8-1.6-1.8c0-1,0.7-1.7,1.6-1.7c1,0,1.6,0.8,1.6,1.7
			C1155.9,768.8,1155.3,769.5,1154.3,769.5z M1155.6,789.2h-2.5v-16.8h2.5V789.2z"/>
		<path class="st1" d="M1177.8,789.2h-2.5v-9.9c0-2.7-0.9-5.1-3.8-5.1c-2.1,0-4.2,1.8-4.2,4.8v10.3h-2.5v-12.5c0-1.7-0.1-3-0.1-4.3
			h2.2l0.2,2.7h0.1c0.8-1.6,2.7-3.1,5.2-3.1c2,0,5.4,1.3,5.4,7V789.2z"/>
		<path class="st1" d="M1188.2,769.5c-0.9,0-1.6-0.8-1.6-1.8c0-1,0.7-1.7,1.6-1.7c1,0,1.6,0.8,1.6,1.7
			C1189.8,768.8,1189.2,769.5,1188.2,769.5z M1189.4,789.2h-2.5v-16.8h2.5V789.2z"/>
		<path class="st1" d="M1211.7,789.2h-2.5v-9.9c0-2.7-0.9-5.1-3.8-5.1c-2.1,0-4.2,1.8-4.2,4.8v10.3h-2.5v-12.5c0-1.7-0.1-3-0.1-4.3
			h2.2l0.1,2.7h0.1c0.8-1.6,2.7-3.1,5.2-3.1c2,0,5.4,1.3,5.4,7V789.2z"/>
		<path class="st1" d="M1234,772.4c-0.1,1.2-0.1,2.6-0.1,4.6v9.8c0,2.9-0.1,9.6-7.7,9.6c-1.8,0-3.9-0.5-5.1-1.3l0.7-2
			c1,0.6,2.6,1.3,4.5,1.3c3,0,5.1-1.6,5.1-6.1v-2h-0.1c-0.8,1.6-2.5,2.9-5,2.9c-3.9,0-6.6-3.5-6.6-8.3c0-5.8,3.5-8.9,7-8.9
			c2.8,0,4.2,1.5,4.9,2.9h0.1l0.1-2.5H1234z M1231.4,778.9c0-2.9-2-4.8-4.3-4.8c-2.8,0-4.8,2.6-4.8,6.7c0,3.6,1.7,6.4,4.8,6.4
			c1.8,0,4.3-1.4,4.3-4.9V778.9z"/>
		<path class="st1" d="M1242.5,787.6c0-1.2,0.7-2,1.8-2c1,0,1.7,0.8,1.7,2c0,1.1-0.7,1.9-1.8,1.9
			C1243.1,789.6,1242.5,788.7,1242.5,787.6z"/>
	</g>
	<g>
		<path class="st2" d="M905.4,448.3L766.9,309.7c-3.9-4-7.4-1.9-9.5,0.2l-33.5,33.5c-1.6,1.6-1.3,6.6,0.3,8.2l107.6,107.6l2.5,2.5
			l-91.6,91.6c-1.8,1.5-1.5,3.7-1,5.2c0.8,2.2,3.4,2.6,5,2.6l67.5,0.4c4.2,0,8.6-3.7,9.4-4.5l81.3-81.3
			C908.1,471.7,918.8,461.8,905.4,448.3z"/>
		<path class="st2" d="M557.3,343.7l138.5,138.5c3.9,4,7.4,1.9,9.5-0.2l33.5-33.5c1.6-1.6,1.3-6.6-0.3-8.2L631,332.8l-2.5-2.5
			l91.6-91.6c1.8-1.5,1.5-3.7,1-5.2c-0.8-2.2-3.4-2.6-5-2.6l-67.5-0.4c-4.2,0-8.6,3.7-9.4,4.5l-81.3,81.3
			C554.6,320.2,543.9,330.1,557.3,343.7z"/>
		<path class="st2" d="M1239.4,448.3l-138.5-138.5c-3.9-4-7.4-1.9-9.5,0.2l-33.5,33.5c-1.6,1.6-1.3,6.6,0.3,8.2l107.6,107.6l2.5,2.5
			l-91.6,91.6c-1.8,1.5-1.5,3.7-1,5.2c0.8,2.2,3.4,2.6,5,2.6l67.5,0.4c4.2,0,8.6-3.7,9.4-4.5l81.3-81.3
			C1242.1,471.7,1252.8,461.8,1239.4,448.3z"/>
		<path class="st2" d="M891.3,343.7l138.5,138.5c3.9,4,7.4,1.9,9.5-0.2l33.5-33.5c1.6-1.6,1.3-6.6-0.3-8.2L964.9,332.8l-2.5-2.5
			l91.6-91.6c1.8-1.5,1.5-3.7,1-5.2c-0.8-2.2-3.4-2.6-5-2.6l-67.5-0.4c-4.2,0-8.6,3.7-9.4,4.5l-81.3,81.3
			C888.6,320.2,877.9,330.1,891.3,343.7z"/>
		<g>
			<g>
				<path class="st3" d="M278.8,384.7l33-71.4L274,231.5c-0.7-1.4-2.6-3.5-4.2-3.5h-55.9c-2.7,0.2-3.6,0.9-4.2,2.6
					c-0.7,1.7-0.6,3.3,0.4,5.2L278.8,384.7z"/>
				<path class="st3" d="M537.2,230.6c-0.7-1.7-1.5-2.4-4.2-2.6H477c-1.6,0-3.5,2.1-4.2,3.5l-99.4,215.2l-28.6-62l-33,71.4
					l46.3,100.3c1.9,4.3,6,4.9,7.6,4.9h7.7h7.7c1.6,0,5.7-0.6,7.6-4.9l148.1-320.7C537.8,233.9,537.9,232.3,537.2,230.6z"/>
			</g>
		</g>
		<path class="st2" d="M359.1,230.6c-0.7-1.7-1.5-2.4-4.2-2.6h-55.9c-1.6,0-3.5,2.1-4.2,3.5l-99.4,215.2L96,231.5
			c-0.7-1.4-2.6-3.5-4.2-3.5H35.8c-2.7,0.2-3.6,0.9-4.2,2.6c-0.7,1.7-0.6,3.3,0.4,5.2l148.1,320.7c1.9,4.3,6,4.9,7.6,4.9h7.7h7.7
			c1.6,0,5.7-0.6,7.6-4.9l148.1-320.7C359.7,233.9,359.8,232.3,359.1,230.6z"/>
	</g>
</g>
</svg>
