<?xml version="1.0" encoding="utf-8"?>
<!-- Generator: Adobe Illustrator 25.1.0, SVG Export Plug-In . SVG Version: 6.00 Build 0)  -->
<svg version="1.1" id="レイヤー_1" xmlns="http://www.w3.org/2000/svg" xmlns:xlink="http://www.w3.org/1999/xlink" x="0px"
	 y="0px" viewBox="0 0 32 32" style="enable-background:new 0 0 32 32;" xml:space="preserve">
<style type="text/css">
	.st0{fill:#FFFFFF;}
</style>
<g id="Layer_19">
	<path class="st0" d="M16,17c-4.4,0-8-3.6-8-8s3.6-8,8-8s8,3.6,8,8S20.4,17,16,17z M16,3c-3.3,0-6,2.7-6,6s2.7,6,6,6s6-2.7,6-6
		S19.3,3,16,3z"/>
	<path class="st0" d="M23,31H9c-2.8,0-5-2.2-5-5v-4c0-0.4,0.2-0.7,0.5-0.9l5-3c0.5-0.2,1.1,0,1.3,0.5c0.2,0.4,0.1,0.9-0.3,1.2
		L6,22.6V26c0,1.7,1.3,3,3,3h14c1.7,0,3-1.3,3-3v-3.4l-4.5-2.7C21,19.6,20.8,19,21,18.5s0.8-0.7,1.3-0.5c0.1,0,0.1,0.1,0.2,0.1l5,3
		c0.3,0.2,0.5,0.5,0.5,0.9v4C28,28.8,25.8,31,23,31z"/>
</g>
</svg>
