<?xml version="1.0" encoding="utf-8"?>
<!-- Generator: Adobe Illustrator 25.1.0, SVG Export Plug-In . SVG Version: 6.00 Build 0)  -->
<svg version="1.1" id="レイヤー_1" xmlns="http://www.w3.org/2000/svg" xmlns:xlink="http://www.w3.org/1999/xlink" x="0px"
	 y="0px" viewBox="0 0 32 32" style="enable-background:new 0 0 32 32;" xml:space="preserve">
<style type="text/css">
	.st0{fill:#FFFFFF;}
</style>
<g id="Layer_25">
	<path class="st0" d="M24,22c-0.2,0-0.5-0.1-0.6-0.2L18.8,18H17c-4.4,0-8-3.6-8-8s3.6-8,8-8h6c4.4,0,8,3.6,8,8c0,3.6-2.5,6.8-6,7.7
		V21c0,0.4-0.2,0.7-0.6,0.9C24.3,22,24.1,22,24,22z M17,4c-3.3,0-6,2.7-6,6s2.7,6,6,6h2.2c0.2,0,0.5,0.1,0.6,0.2l3.2,2.6v-1.9
		c0-0.5,0.4-0.9,0.9-1c3.3-0.5,5.5-3.6,5-6.9c-0.5-2.9-2.9-5-5.8-5H17z"/>
	<rect x="19" y="9" class="st0" width="2" height="2"/>
	<rect x="14" y="9" class="st0" width="2" height="2"/>
	<rect x="24" y="9" class="st0" width="2" height="2"/>
	<path class="st0" d="M8,30c-0.1,0-0.3,0-0.4-0.1C7.2,29.7,7,29.4,7,29v-3.3c-4.3-1.1-6.8-5.5-5.7-9.8c0.6-2.3,2.2-4.2,4.4-5.2
		c0.5-0.3,1.1-0.1,1.4,0.4c0.3,0.5,0.1,1.1-0.4,1.4c0,0-0.1,0-0.1,0.1c-3,1.4-4.4,4.9-3,7.9c0.8,1.9,2.6,3.2,4.6,3.5
		C8.6,24,9,24.5,9,25v1.9l3.2-2.6c0.2-0.2,0.4-0.3,0.6-0.3H15c1.6,0,3.2-0.7,4.3-1.8c0.4-0.4,1-0.4,1.4,0s0.4,1,0,1.4l0,0
		C19.2,25.1,17.2,26,15,26h-1.8l-4.5,3.8C8.5,29.9,8.2,30,8,30z"/>
</g>
</svg>
