<?xml version="1.0" encoding="utf-8"?>
<!-- Generator: Adobe Illustrator 25.1.0, SVG Export Plug-In . SVG Version: 6.00 Build 0)  -->
<svg version="1.1" id="レイヤー_1" xmlns="http://www.w3.org/2000/svg" xmlns:xlink="http://www.w3.org/1999/xlink" x="0px"
	 y="0px" viewBox="0 0 32 32" style="enable-background:new 0 0 32 32;" xml:space="preserve">
<style type="text/css">
	.st0{fill:#FFFFFF;}
</style>
<g id="Layer_24">
	<path class="st0" d="M26,30c-0.2,0-0.4-0.1-0.6-0.2L18.1,24H4c-1.7,0-3-1.3-3-3V5c0-1.7,1.3-3,3-3h24c1.7,0,3,1.3,3,3v16
		c0,1.7-1.3,3-3,3h-1v5c0,0.4-0.2,0.7-0.6,0.9C26.3,30,26.1,30,26,30z M4,4C3.4,4,3,4.4,3,5v16c0,0.6,0.4,1,1,1h14.5
		c0.2,0,0.5,0.1,0.6,0.2l5.9,4.7V23c0-0.6,0.4-1,1-1h2c0.6,0,1-0.4,1-1V5c0-0.6-0.4-1-1-1H4z"/>
	<rect x="15" y="12" class="st0" width="2" height="2"/>
	<rect x="8" y="12" class="st0" width="2" height="2"/>
	<rect x="22" y="12" class="st0" width="2" height="2"/>
</g>
</svg>
