<?xml version="1.0" encoding="utf-8"?>
<!-- Generator: Adobe Illustrator 25.1.0, SVG Export Plug-In . SVG Version: 6.00 Build 0)  -->
<svg version="1.1" id="レイヤー_1" xmlns="http://www.w3.org/2000/svg" xmlns:xlink="http://www.w3.org/1999/xlink" x="0px"
	 y="0px" viewBox="0 0 32 32" style="enable-background:new 0 0 32 32;" xml:space="preserve">
<style type="text/css">
	.st0{fill:#4E9BCB;}
</style>
<g id="Layer_21">
	<path class="st0" d="M16,31c-0.8,0-1.6-0.4-2.2-1C10.1,26,4,18.4,4,13.4C3.9,6.6,9.3,1.1,16,1c6.7,0.1,12.1,5.6,12,12.4
		c0,5-6.1,12.6-9.8,16.6C17.6,30.6,16.8,31,16,31z M16,3C10.4,3.1,5.9,7.7,6,13.4c0,3.1,3.5,8.9,9.3,15.3c0.4,0.4,1,0.4,1.4,0
		c0,0,0,0,0,0c5.8-6.5,9.3-12.2,9.3-15.3C26.1,7.7,21.6,3.1,16,3z"/>
	<path class="st0" d="M16,19c-3.3,0-6-2.7-6-6s2.7-6,6-6s6,2.7,6,6S19.3,19,16,19z M16,9c-2.2,0-4,1.8-4,4s1.8,4,4,4s4-1.8,4-4
		S18.2,9,16,9z"/>
</g>
</svg>
