<?xml version="1.0" encoding="utf-8"?>
<!-- Generator: Adobe Illustrator 22.0.1, SVG Export Plug-In . SVG Version: 6.00 Build 0)  -->
<svg version="1.1" id="レイヤー_1" xmlns="http://www.w3.org/2000/svg" xmlns:xlink="http://www.w3.org/1999/xlink" x="0px"
	 y="0px" viewBox="0 0 1280 1024" style="enable-background:new 0 0 1280 1024;" xml:space="preserve">
<style type="text/css">
	.st0{fill:#2568A9;}
	.st1{fill:#00406D;}
	.st2{fill:#E4E14C;}
</style>
<g>
	<path class="st0" d="M305.2,554.2h-12.3v19.1h-4.3v-19.1h-12.3v-3.3h28.9V554.2z"/>
	<path class="st0" d="M339.3,562.1c0,3.7-1.7,6.6-5.2,8.9c-3,2-6.8,3-11.3,3c-4.5,0-8.3-1-11.4-3c-3.5-2.3-5.2-5.2-5.2-8.9
		c0-3.6,1.8-6.5,5.3-8.9c3.1-2,6.8-3,11.3-3c4.5,0,8.2,1,11.3,3C337.5,555.5,339.3,558.5,339.3,562.1z M334.8,562.1
		c0-2.6-1.3-4.7-3.8-6.4c-2.2-1.4-4.9-2.1-8.2-2.1c-3.6,0-6.5,0.8-8.7,2.4c-2.3,1.6-3.4,3.6-3.4,6.1c0,2.5,1.1,4.6,3.3,6.1
		c2.2,1.6,5.1,2.3,8.8,2.3c3.6,0,6.6-0.8,8.8-2.4C333.7,566.6,334.8,564.6,334.8,562.1z"/>
	<path class="st0" d="M403.2,573.3h-4.3V555h-0.1l-13.4,14.6L372.2,555h-0.1v18.3h-4.3v-22.4h5.3l12.3,13.5l12.4-13.5h5.3V573.3z"/>
	<path class="st0" d="M440.3,573.3h-4.7l-3-5h-17.3l-3,5h-4.7l13.6-22.4h5.4L440.3,573.3z M430.6,565l-6.6-10.9l-6.6,10.9H430.6z"/>
	<path class="st0" d="M474.7,573.3h-5.5l-12.3-11.8l-7.8,5v6.8h-4.3v-22.4h4.3v11.6l18-11.6h6.2l-13.2,8.5L474.7,573.3z"/>
	<path class="st0" d="M506,573.3H479v-22.4H505v3.3h-21.7v5.8h15.1v3.3h-15.1v6.6H506V573.3z"/>
	<path class="st0" d="M562.5,573.3h-4.7l-3-5h-17.3l-3,5H530l13.6-22.4h5.4L562.5,573.3z M552.8,565l-6.6-10.9l-6.6,10.9H552.8z"/>
	<path class="st0" d="M609.1,550.9c2.6,0,4.7,0.6,6.3,1.9s2.3,3,2.3,5.1c0,2.2-0.8,3.9-2.4,5.1c-1.6,1.2-3.9,1.8-7,1.8H593v8.5h-4.3
		v-22.4H609.1z M608.3,561.4c3.3,0,4.9-1.2,4.9-3.5c0-2.5-1.7-3.7-5.2-3.7H593v7.2H608.3z"/>
	<path class="st0" d="M649.5,573.3h-26.9v-22.4h25.9v3.3h-21.7v5.8h15.1v3.3h-15.1v6.6h22.7V573.3z"/>
	<path class="st0" d="M685.1,573.3h-5l-7-8.5h-13v8.5h-4.3v-22.4h20.3c2.7,0,4.8,0.6,6.4,1.9s2.3,3,2.3,5.2c0,1.9-0.6,3.4-1.9,4.6
		c-1.2,1.1-2.8,1.8-4.8,2L685.1,573.3z M675.6,561.4c3.3,0,4.9-1.2,4.9-3.5c0-2.5-1.8-3.7-5.3-3.7h-15v7.2H675.6z"/>
	<path class="st0" d="M713.9,556.2c-3.8-1.7-7.7-2.5-11.7-2.5c-2.6,0-4.6,0.3-6,0.8c-1.4,0.5-2.1,1.3-2.1,2.2c0,1,0.7,1.7,2.2,2.2
		c1.1,0.3,2.8,0.6,5.2,0.7c3.6,0.2,5.9,0.4,7,0.5c3.2,0.4,5.6,1.1,7.1,2.1s2.3,2.4,2.3,4.3c0,2.4-1.2,4.2-3.6,5.5
		c-2.4,1.3-5.9,1.9-10.4,1.9c-6.6,0-11.7-1.3-15.3-3.8l2.3-2.7c4,2.1,8.4,3.2,13,3.2c3,0,5.3-0.4,7-1.1c1.6-0.7,2.4-1.7,2.4-2.9
		c0-1.4-1-2.4-3.1-2.8c-1.1-0.2-4-0.5-8.8-0.8c-4.2-0.2-7.2-0.7-8.9-1.5c-2-0.9-3-2.3-3-4.4c0-2.1,1.1-3.8,3.4-5
		c2.3-1.2,5.5-1.8,9.6-1.8c5.5,0,10.2,1.1,13.9,3.3L713.9,556.2z"/>
	<path class="st0" d="M755.7,562.1c0,3.7-1.7,6.6-5.2,8.9c-3,2-6.8,3-11.3,3c-4.5,0-8.3-1-11.4-3c-3.5-2.3-5.2-5.2-5.2-8.9
		c0-3.6,1.8-6.5,5.3-8.9c3.1-2,6.8-3,11.3-3c4.5,0,8.2,1,11.3,3C754,555.5,755.7,558.5,755.7,562.1z M751.3,562.1
		c0-2.6-1.3-4.7-3.8-6.4c-2.2-1.4-4.9-2.1-8.2-2.1c-3.6,0-6.5,0.8-8.7,2.4c-2.3,1.6-3.4,3.6-3.4,6.1c0,2.5,1.1,4.6,3.3,6.1
		c2.2,1.6,5.1,2.3,8.8,2.3c3.6,0,6.6-0.8,8.8-2.4C750.2,566.6,751.3,564.6,751.3,562.1z"/>
	<path class="st0" d="M792.2,573.3h-5.3l-19.6-18.4v18.4H763v-22.4h5.3l19.6,18.4v-18.4h4.3V573.3z"/>
	<path class="st0" d="M858.7,554.2H837v5.8h15.1v3.3H837v10h-4.3v-22.4h25.9V554.2z"/>
	<path class="st0" d="M893,562.1c0,3.7-1.7,6.6-5.2,8.9c-3,2-6.8,3-11.3,3c-4.5,0-8.3-1-11.4-3c-3.5-2.3-5.2-5.2-5.2-8.9
		c0-3.6,1.8-6.5,5.3-8.9c3.1-2,6.8-3,11.3-3c4.5,0,8.2,1,11.3,3C891.3,555.5,893,558.5,893,562.1z M888.6,562.1
		c0-2.6-1.3-4.7-3.8-6.4c-2.2-1.4-4.9-2.1-8.2-2.1c-3.6,0-6.5,0.8-8.7,2.4c-2.3,1.6-3.4,3.6-3.4,6.1c0,2.5,1.1,4.6,3.3,6.1
		c2.2,1.6,5.1,2.3,8.8,2.3c3.6,0,6.6-0.8,8.8-2.4C887.5,566.6,888.6,564.6,888.6,562.1z"/>
	<path class="st0" d="M922.3,556.2c-3.8-1.7-7.7-2.5-11.7-2.5c-2.6,0-4.6,0.3-6,0.8c-1.4,0.5-2.1,1.3-2.1,2.2c0,1,0.7,1.7,2.2,2.2
		c1.1,0.3,2.8,0.6,5.2,0.7c3.6,0.2,5.9,0.4,7,0.5c3.2,0.4,5.6,1.1,7.1,2.1c1.5,1,2.3,2.4,2.3,4.3c0,2.4-1.2,4.2-3.6,5.5
		c-2.4,1.3-5.9,1.9-10.4,1.9c-6.6,0-11.7-1.3-15.3-3.8l2.3-2.7c4,2.1,8.4,3.2,13,3.2c3,0,5.3-0.4,7-1.1c1.6-0.7,2.4-1.7,2.4-2.9
		c0-1.4-1-2.4-3.1-2.8c-1.1-0.2-4-0.5-8.8-0.8c-4.2-0.2-7.2-0.7-8.9-1.5c-2-0.9-3-2.3-3-4.4c0-2.1,1.1-3.8,3.4-5
		c2.3-1.2,5.5-1.8,9.6-1.8c5.5,0,10.2,1.1,13.9,3.3L922.3,556.2z"/>
	<path class="st0" d="M956.1,554.2h-12.3v19.1h-4.3v-19.1h-12.3v-3.3h28.9V554.2z"/>
	<path class="st0" d="M987.6,573.3h-26.9v-22.4h25.9v3.3h-21.7v5.8H980v3.3h-15.1v6.6h22.7V573.3z"/>
	<path class="st0" d="M1023.2,573.3h-5l-7-8.5h-13v8.5H994v-22.4h20.3c2.7,0,4.8,0.6,6.4,1.9c1.5,1.3,2.3,3,2.3,5.2
		c0,1.9-0.6,3.4-1.9,4.6c-1.2,1.1-2.8,1.8-4.8,2L1023.2,573.3z M1013.6,561.4c3.3,0,4.9-1.2,4.9-3.5c0-2.5-1.8-3.7-5.3-3.7h-15v7.2
		H1013.6z"/>
	<path class="st0" d="M1080.3,573.3h-4.3v-10h-20.6v10h-4.3v-22.4h4.3v9.1h20.6v-9.1h4.3V573.3z"/>
	<path class="st0" d="M1117.8,566.1c0,2.3-1.3,4.2-3.9,5.7c-2.7,1.5-6.2,2.3-10.6,2.3c-4.4,0-8-0.8-10.7-2.3
		c-2.6-1.5-3.9-3.4-3.9-5.7v-15.2h4.3v14.3c0,1.8,0.9,3.1,2.6,4c1.8,0.9,4.3,1.4,7.7,1.4s5.9-0.5,7.7-1.4c1.7-0.9,2.6-2.3,2.6-4
		v-14.3h4.3V566.1z"/>
	<path class="st0" d="M1161.6,573.3h-4.3V555h-0.1l-13.4,14.6l-13.3-14.6h-0.1v18.3h-4.3v-22.4h5.3l12.3,13.5l12.4-13.5h5.3V573.3z"
		/>
	<path class="st0" d="M1198.7,573.3h-4.7l-3-5h-17.3l-3,5h-4.7l13.6-22.4h5.4L1198.7,573.3z M1189,565l-6.6-10.9l-6.6,10.9H1189z"/>
	<path class="st0" d="M1232.5,573.3h-5.3l-19.6-18.4v18.4h-4.3v-22.4h5.3l19.6,18.4v-18.4h4.3V573.3z"/>
	<path class="st0" d="M386.5,527c-2.2,0-4.7-0.7-6.5-2l-86.7-62.8v54.6c0,5.6-3.7,10.2-9.4,10.2c-5.7,0-9.4-4.6-9.4-10.2V442
		c0-3.8,1.7-7.4,5.2-9.1c3.5-1.7,7.4-1.4,10.6,0.9l86.1,62.8V442c0-5.6,4.7-10.2,10.4-10.2c5.7,0,10.4,4.6,10.4,10.2v74.8
		c0,3.8-2.3,7.4-5.8,9.1C389.8,526.7,388.1,527,386.5,527z"/>
	<path class="st0" d="M656,527c-2.4,0-4.8-0.7-6.8-2.2L548.4,450c-4.7-3.5-5.5-9.9-1.8-14.3c3.8-4.4,10.6-5.1,15.4-1.6l100.8,74.8
		c4.7,3.5,5.5,9.9,1.8,14.3C662.4,525.7,659.2,527,656,527z"/>
	<path class="st0" d="M555.2,527c-3.2,0-6.4-1.3-8.6-3.9c-3.8-4.4-3-10.8,1.8-14.3L649.2,434c4.7-3.5,11.6-2.8,15.4,1.6
		c3.8,4.4,3,10.8-1.8,14.3L562,524.8C560,526.3,557.6,527,555.2,527z"/>
	<path class="st0" d="M792.9,452.5H689.5c-5.3,0-9.6-4.6-9.6-10.3c0-5.6,4.3-10.3,9.6-10.3h103.4c5.3,0,9.6,4.6,9.6,10.3
		C802.5,447.8,798.2,452.5,792.9,452.5z"/>
	<path class="st0" d="M741.2,527.1c-6.2,0-10.3-4.6-10.3-10.2v-74.8c0-5.6,4.1-10.2,10.3-10.2s10.3,4.6,10.3,10.2v74.8
		C751.5,522.6,747.4,527.1,741.2,527.1z"/>
	<path class="st0" d="M1098.7,527.2c-2.1,0-4.6-0.7-6.4-2l-85.4-62.8V517c0,5.6-4.6,10.2-10.2,10.2s-10.2-4.6-10.2-10.2v-74.8
		c0-3.8,2.6-7.4,6-9.1c3.4-1.7,7.8-1.4,10.9,0.9l85.3,62.8v-54.6c0-5.6,4.6-10.2,10.2-10.2s10.2,4.6,10.2,10.2V517
		c0,3.8-2.3,7.4-5.7,9.1C1102,526.9,1100.3,527.2,1098.7,527.2z"/>
	<path class="st0" d="M1234.4,452.9h-103c-5.4,0-9.8-4.6-9.8-10.3s4.4-10.3,9.8-10.3h103c5.4,0,9.8,4.6,9.8,10.3
		S1239.8,452.9,1234.4,452.9z"/>
	<path class="st0" d="M1234.3,526.6h-101.8c-5.5,0-10.8-4.5-10.8-10v-37c0-5.6,5.3-10.2,10.8-10.2h91.8c5.5,0,10,4.6,10,10.2
		c0,5.6-4.5,10.2-10,10.2h-82.6v16.6h92.6c5.5,0,10,4.6,10,10.2C1244.3,522.1,1239.8,526.6,1234.3,526.6z"/>
	<path class="st0" d="M945.9,527.2h-66.1c-15.5,0-28.7-12.3-28.7-26.8v-41.4c0-14.5,13.2-26.9,28.7-26.9h66.1
		c15.5,0,27.8,12.4,27.8,26.9v41.4C973.7,514.9,961.5,527.2,945.9,527.2z M879.8,451c-5.8,0-9.9,3.2-9.9,7.9v41.4
		c0,4.7,4,7.8,9.9,7.8h66.1c5.8,0,10.8-3.1,10.8-7.8v-41.4c0-4.7-4.9-7.9-10.8-7.9H879.8z"/>
	<path class="st0" d="M522.3,452.1l-103.1,0.5c-5.4,0-9.8-4.6-9.8-10.2c0-5.6,4.3-10.3,9.7-10.3l103.1-0.5c5.4,0,9.8,4.6,9.8,10.2
		C532.1,447.4,527.7,452,522.3,452.1z"/>
	<path class="st0" d="M522.4,526.7l-101.7,0.4c-5.5,0-10.9-4.5-10.9-10.1l-0.1-37.4c0-5.6,5.3-10.4,10.8-10.4l91.7-0.4
		c5.5,0,10,4.6,10,10.2s-4.4,10.3-9.9,10.3l-82.6,0.4l0.1,16.8l92.5-0.4c5.5,0,10,4.6,10,10.2C532.3,522,527.9,526.7,522.4,526.7z"
		/>
	<path class="st1" d="M231.7,444.2v79.9H104.4v-79.9H231.7 M242,433.9H94.1v100.5H242V433.9z"/>
	<polyline class="st2" points="231.7,444.2 231.7,524.1 104.4,524.1 104.4,444.2 231.7,444.2 	"/>
	<path class="st1" d="M183.5,480.3v79.9H56.3v-79.9H183.5 M193.8,470.1H46v100.5h147.8V470.1z"/>
	<polyline class="st0" points="183.5,480.3 183.5,560.3 56.3,560.3 56.3,480.3 183.5,480.3 	"/>
</g>
</svg>
