<svg xmlns="http://www.w3.org/2000/svg" xmlns:xlink="http://www.w3.org/1999/xlink" width="154.725" height="55" viewBox="0 0 154.725 55">
  <defs>
    <clipPath id="clip-path">
      <rect id="長方形_28" data-name="長方形 28" width="154.725" height="55" transform="translate(350 8737)" fill="#fff" stroke="#707070" stroke-width="1"/>
    </clipPath>
  </defs>
  <g id="マスクグループ_2" data-name="マスクグループ 2" transform="translate(-350 -8737)" clip-path="url(#clip-path)">
    <g id="wssロゴ" transform="translate(369.71 8737)">
      <path id="パス_106" data-name="パス 106" d="M13.357,99.5l-1.585,8.254H10l-.484-3.009c-.123-.764-.228-1.616-.323-2.6H9.171c-.133.987-.247,1.819-.4,2.613l-.55,3H6.485L5,99.5H6.751l.418,3.222c.123.958.228,1.984.332,2.893H7.52c.114-.948.285-1.916.437-2.913l.522-3.2h1.594l.484,3.271c.142.948.256,1.839.351,2.835h.028c.095-1,.209-1.926.342-2.893l.427-3.2h1.651Z" transform="translate(-4.986 -61.425)" fill="#050000"/>
      <path id="パス_107" data-name="パス 107" d="M27.145,108.926a4.334,4.334,0,0,1-1.746.329c-1.661,0-2.6-1.132-2.6-3.009,0-1.722.883-3.222,2.458-3.222,1.262,0,2.145.958,2.145,3a4.864,4.864,0,0,1-.047.793h-2.98a1.127,1.127,0,0,0,1.281,1.045,3.728,3.728,0,0,0,1.272-.232ZM25.9,105.52c0-.532-.152-1.21-.721-1.21s-.778.706-.807,1.21Z" transform="translate(-12.235 -62.818)" fill="#050000"/>
      <path id="パス_108" data-name="パス 108" d="M37.66,102.163a1.546,1.546,0,0,1,1.348-.755c1.177,0,1.879,1.268,1.879,2.99,0,2.158-1.016,3.261-2.126,3.261a1.391,1.391,0,0,1-1.319-.881h-.019l-.085.755h-1.4c.019-.474.038-1.171.038-1.838V98.941h1.651v3.222Zm-.028,2.98c0,.677.38,1.016.731,1.016.55,0,.864-.59.864-1.655,0-.939-.285-1.587-.864-1.587-.37,0-.731.377-.731,1.026Z" transform="translate(-17.587 -61.203)" fill="#050000"/>
      <path id="パス_109" data-name="パス 109" d="M53.614,101.238a2.608,2.608,0,0,0-1.281-.339c-.636,0-.949.348-.949.755,0,.455.3.687,1.186,1.142a2.586,2.586,0,0,1,1.632,2.429A2.492,2.492,0,0,1,51.44,107.8a3.8,3.8,0,0,1-1.794-.426l.285-1.577a3.4,3.4,0,0,0,1.575.426c.693,0,1.035-.339,1.035-.832s-.332-.784-1.082-1.161a2.725,2.725,0,0,1-1.737-2.39,2.411,2.411,0,0,1,2.62-2.5,3.243,3.243,0,0,1,1.575.368Z" transform="translate(-23.167 -61.362)" fill="#050000"/>
      <path id="パス_110" data-name="パス 110" d="M62.709,101.048l1.632-.522v1.626h1.1v1.355h-1.1v2.264c0,.706.2.958.588.958a1.116,1.116,0,0,0,.427-.058l.009,1.451a3.17,3.17,0,0,1-1.016.135c-1.623,0-1.651-1.577-1.651-2.264v-2.5h-.645v-1.355H62.7v-1.093Z" transform="translate(-28.219 -61.83)" fill="#050000"/>
      <path id="パス_111" data-name="パス 111" d="M77.691,107.277c0,.735.028,1.4.047,1.935H76.315l-.076-.745H76.21a1.689,1.689,0,0,1-1.471.861c-1.072,0-1.67-.822-1.67-2.555v-3.58H74.72V106.5c0,.813.2,1.277.655,1.277.342,0,.664-.3.664-.91v-3.687h1.651Z" transform="translate(-32.704 -62.882)" fill="#050000"/>
      <path id="パス_112" data-name="パス 112" d="M91.222,105.682c0,.658.019,1.355.038,1.839H89.818l-.076-.784h-.028a1.564,1.564,0,0,1-1.386.9c-1.215,0-2-1.326-2-3.1,0-2.042.978-3.154,2.079-3.154a1.23,1.23,0,0,1,1.148.619h.028v-3.1h1.651v6.773Zm-1.651-1.713c0-.832-.427-1.074-.712-1.074-.6,0-.873.745-.873,1.655,0,1.035.361,1.577.864,1.577.313,0,.721-.223.721-1.045Z" transform="translate(-38.102 -61.191)" fill="#050000"/>
      <path id="パス_113" data-name="パス 113" d="M104.621,103.216l-1.158,4.277a9.422,9.422,0,0,1-1.557,3.522,2.8,2.8,0,0,1-1.471.89l-.408-1.606a1.964,1.964,0,0,0,1.338-1.3.784.784,0,0,0-.066-.271l-1.718-5.516h1.813l.617,2.951c.076.339.152.726.2,1.045h.028c.057-.319.114-.706.171-1.035l.5-2.961Z" transform="translate(-43.499 -62.894)" fill="#050000"/>
      <path id="パス_114" data-name="パス 114" d="M116.789,101.238a2.608,2.608,0,0,0-1.281-.339c-.636,0-.949.348-.949.755,0,.455.3.687,1.186,1.142a2.586,2.586,0,0,1,1.632,2.429,2.492,2.492,0,0,1-2.762,2.574,3.8,3.8,0,0,1-1.794-.426l.285-1.577a3.4,3.4,0,0,0,1.575.426c.693,0,1.035-.339,1.035-.832s-.332-.784-1.082-1.161a2.725,2.725,0,0,1-1.737-2.39,2.411,2.411,0,0,1,2.619-2.5,3.243,3.243,0,0,1,1.576.368Z" transform="translate(-48.891 -61.362)" fill="#050000"/>
      <path id="パス_115" data-name="パス 115" d="M129.722,107.72a8.836,8.836,0,0,0,.085,1.422h-1.481l-.095-.581H128.2a1.563,1.563,0,0,1-1.357.7,1.681,1.681,0,0,1-1.585-1.848c0-1.587,1.253-2.274,2.809-2.284,0-.455-.18-.793-.845-.793a2.339,2.339,0,0,0-1.3.406l-.3-1.219a3.743,3.743,0,0,1,1.936-.513c1.746,0,2.173,1.258,2.173,2.593v2.119Zm-1.6-1.413c-.683,0-1.272.223-1.272.919,0,.493.266.706.55.706a.758.758,0,0,0,.712-.842v-.784Z" transform="translate(-53.956 -62.812)" fill="#050000"/>
      <path id="パス_116" data-name="パス 116" d="M140.109,103.888a1.639,1.639,0,0,1,1.462-.881c1.167,0,1.965,1.277,1.965,3.077,0,2.2-1.082,3.174-2.117,3.174a1.292,1.292,0,0,1-1.129-.61h-.028v2.884h-1.642v-6.415c0-.745-.019-1.413-.038-1.984H140l.085.755Zm.161,2.845c0,.61.3,1.055.721,1.055.579,0,.873-.7.873-1.635,0-1.006-.3-1.626-.854-1.626-.389,0-.74.4-.74,1.035Z" transform="translate(-59.38 -62.812)" fill="#050000"/>
      <path id="パス_117" data-name="パス 117" d="M153.855,103.888a1.639,1.639,0,0,1,1.462-.881c1.167,0,1.965,1.277,1.965,3.077,0,2.2-1.082,3.174-2.116,3.174a1.292,1.292,0,0,1-1.129-.61h-.028v2.884h-1.651v-6.415c0-.745-.019-1.413-.038-1.984h1.424l.085.755Zm.152,2.845c0,.61.3,1.055.721,1.055.579,0,.873-.7.873-1.635,0-1.006-.3-1.626-.854-1.626-.389,0-.74.4-.74,1.035Z" transform="translate(-64.973 -62.812)" fill="#050000"/>
      <path id="パス_118" data-name="パス 118" d="M170.615,106.11c0,2.342-1.319,3.164-2.477,3.164-1.462,0-2.468-1.151-2.468-3.087,0-2.022,1.072-3.164,2.525-3.164C169.7,103.023,170.615,104.3,170.615,106.11Zm-2.458-1.722c-.617,0-.816.919-.816,1.751,0,1.006.256,1.761.816,1.761.531,0,.788-.8.788-1.761C168.944,105.249,168.726,104.388,168.157,104.388Z" transform="translate(-70.41 -62.818)" fill="#050000"/>
      <path id="パス_119" data-name="パス 119" d="M182.577,104.84a1.623,1.623,0,0,0-.408-.039.951.951,0,0,0-.959.755,1.888,1.888,0,0,0-.066.561v3.009h-1.651v-4.074c0-.793-.019-1.4-.038-1.945h1.414l.066,1.006h.038a1.435,1.435,0,0,1,1.253-1.122,1.7,1.7,0,0,1,.351.029v1.819Z" transform="translate(-76.022 -62.806)" fill="#050000"/>
      <path id="パス_120" data-name="パス 120" d="M194.357,106.11c0,2.342-1.319,3.164-2.477,3.164-1.462,0-2.468-1.151-2.468-3.087,0-2.022,1.072-3.164,2.525-3.164C193.446,103.023,194.357,104.3,194.357,106.11Zm-2.458-1.722c-.617,0-.816.919-.816,1.751,0,1.006.256,1.761.816,1.761.532,0,.788-.8.788-1.761C192.687,105.249,192.459,104.388,191.9,104.388Z" transform="translate(-80.077 -62.818)" fill="#050000"/>
      <g id="グループ_65" data-name="グループ 65" transform="translate(0 51.923)">
        <path id="パス_121" data-name="パス 121" d="M7.485,122.6,6.9,124.861H6.659l-.275-1.21c-.066-.3-.114-.523-.142-.755H6.232a6.229,6.229,0,0,1-.171.745l-.313,1.219H5.511L4.979,122.6h.247l.266,1.181c.066.29.123.561.161.784h.009c.028-.232.1-.493.171-.793l.294-1.181h.237l.266,1.171c.057.271.123.542.152.793h.009c.038-.261.1-.513.171-.793l.294-1.171h.228Z" transform="translate(-4.979 -122.481)" fill="#231815"/>
        <path id="パス_122" data-name="パス 122" d="M11.362,125.186a1.02,1.02,0,0,1-.484.1.725.725,0,0,1-.712-.823c0-.513.266-.881.683-.881.475,0,.588.455.588.745a.564.564,0,0,1-.009.135H10.4c0,.455.247.619.522.619a.816.816,0,0,0,.4-.087Zm-.142-.9c0-.223-.085-.5-.389-.5-.285,0-.408.281-.427.5Z" transform="translate(-7.091 -122.874)" fill="#231815"/>
        <path id="パス_123" data-name="パス 123" d="M16.361,124.867a2.515,2.515,0,0,0,.019.387h-.209l-.019-.213h-.009a.528.528,0,0,1-.456.242.435.435,0,0,1-.446-.464c0-.387.323-.6.892-.6,0-.135,0-.445-.351-.445a.624.624,0,0,0-.37.116l-.057-.174a.825.825,0,0,1,.465-.135c.437,0,.541.329.541.648v.639Zm-.228-.455c-.294,0-.655.048-.655.387,0,.213.123.3.266.3a.385.385,0,0,0,.389-.377Z" transform="translate(-9.158 -122.874)" fill="#231815"/>
        <path id="パス_124" data-name="パス 124" d="M19.3,123.848c-.028,0-.047-.01-.085-.01-.256,0-.38.261-.38.542v.881H18.6v-1.142c0-.174,0-.329-.009-.484H18.8l.009.31h.009a.463.463,0,0,1,.418-.348c.028,0,.047.01.066.01Z" transform="translate(-10.52 -122.88)" fill="#231815"/>
        <path id="パス_125" data-name="パス 125" d="M21.961,125.186a1.02,1.02,0,0,1-.484.1.725.725,0,0,1-.712-.823c0-.513.266-.881.683-.881.475,0,.588.455.588.745a.564.564,0,0,1-.009.135H20.983c0,.455.247.619.522.619a.816.816,0,0,0,.4-.087Zm-.152-.9c0-.223-.085-.5-.389-.5-.285,0-.408.281-.427.5Z" transform="translate(-11.407 -122.874)" fill="#231815"/>
        <path id="パス_126" data-name="パス 126" d="M26.953,124.867a2.516,2.516,0,0,0,.019.387h-.218l-.019-.213h-.009a.528.528,0,0,1-.456.242.435.435,0,0,1-.446-.464c0-.387.323-.6.892-.6,0-.135,0-.445-.351-.445a.624.624,0,0,0-.37.116l-.057-.174a.825.825,0,0,1,.465-.135c.437,0,.541.329.541.648v.639Zm-.228-.455c-.294,0-.655.048-.655.387,0,.213.123.3.266.3a.385.385,0,0,0,.389-.377Z" transform="translate(-13.467 -122.874)" fill="#231815"/>
        <path id="パス_127" data-name="パス 127" d="M31.667,123.886a.53.53,0,0,0-.294-.1.232.232,0,0,0-.256.242c0,.135.085.2.285.29.247.106.389.242.389.484a.482.482,0,0,1-.541.484.841.841,0,0,1-.4-.106l.066-.194a.752.752,0,0,0,.342.106c.209,0,.3-.116.3-.261s-.085-.232-.285-.319c-.256-.106-.389-.261-.389-.455a.467.467,0,0,1,.5-.464.722.722,0,0,1,.351.1Z" transform="translate(-15.514 -122.88)" fill="#231815"/>
        <path id="パス_128" data-name="パス 128" d="M34.689,125.2a.878.878,0,0,1-.418.1.742.742,0,0,1-.731-.832.8.8,0,0,1,.788-.871.86.86,0,0,1,.37.087l-.057.2a.582.582,0,0,0-.313-.087c-.351,0-.541.3-.541.648,0,.4.218.639.531.639a.842.842,0,0,0,.332-.077Z" transform="translate(-16.609 -122.88)" fill="#231815"/>
        <path id="パス_129" data-name="パス 129" d="M37.96,124.792h-.237v-.958c0-.261-.085-.493-.351-.493a.431.431,0,0,0-.408.455v1h-.237v-2.38h.237v1.006h.009a.57.57,0,0,1,.475-.29c.19,0,.513.126.513.677Z" transform="translate(-17.906 -122.411)" fill="#231815"/>
        <path id="パス_130" data-name="パス 130" d="M41.5,124.438c0,.61-.38.861-.721.861-.389,0-.693-.31-.693-.842,0-.552.323-.861.721-.861C41.228,123.6,41.5,123.935,41.5,124.438Zm-.7-.648c-.332,0-.465.348-.465.658,0,.358.19.648.465.648s.475-.29.475-.658C41.266,124.157,41.133,123.79,40.8,123.79Z" transform="translate(-19.275 -122.88)" fill="#231815"/>
        <path id="パス_131" data-name="パス 131" d="M45.009,124.438c0,.61-.38.861-.721.861-.389,0-.693-.31-.693-.842,0-.552.323-.861.721-.861S45.009,123.935,45.009,124.438Zm-.712-.648c-.332,0-.465.348-.465.658,0,.358.19.648.465.648s.475-.29.475-.658C44.772,124.157,44.639,123.79,44.3,123.79Z" transform="translate(-20.703 -122.88)" fill="#231815"/>
        <path id="パス_132" data-name="パス 132" d="M47.514,124.792h-.237v-2.38h.237Z" transform="translate(-22.202 -122.411)" fill="#231815"/>
        <path id="パス_133" data-name="パス 133" d="M51.2,123.922a.552.552,0,0,1,.522-.31c.361,0,.626.329.626.832,0,.6-.332.871-.664.871a.524.524,0,0,1-.465-.261h-.009v.89h-.237v-1.771c0-.213-.009-.377-.009-.523h.209l.028.271Zm.009.7a.443.443,0,0,0,.427.484c.3,0,.465-.271.465-.658,0-.339-.161-.639-.456-.639a.485.485,0,0,0-.437.5Z" transform="translate(-23.701 -122.886)" fill="#231815"/>
        <path id="パス_134" data-name="パス 134" d="M55.289,123.848c-.028,0-.047-.01-.085-.01-.256,0-.38.261-.38.542v.881h-.237v-1.142c0-.174,0-.329-.009-.484h.209l.009.31h.009a.463.463,0,0,1,.418-.348c.028,0,.047.01.066.01v.242Z" transform="translate(-25.175 -122.88)" fill="#231815"/>
        <path id="パス_135" data-name="パス 135" d="M58.169,124.438c0,.61-.38.861-.721.861-.389,0-.693-.31-.693-.842,0-.552.323-.861.721-.861C57.894,123.6,58.169,123.935,58.169,124.438Zm-.7-.648c-.332,0-.465.348-.465.658,0,.358.19.648.465.648s.475-.29.475-.658C57.932,124.157,57.8,123.79,57.467,123.79Z" transform="translate(-26.061 -122.88)" fill="#231815"/>
        <path id="パス_136" data-name="パス 136" d="M61.5,123.66l-.579,1.626H60.7l-.569-1.626h.247l.3.948c.047.145.085.281.123.416h.009c.038-.135.076-.271.123-.416l.3-.939H61.5Z" transform="translate(-27.437 -122.905)" fill="#231815"/>
        <path id="パス_137" data-name="パス 137" d="M63.679,122.974a.163.163,0,0,1-.152-.174.152.152,0,1,1,.3,0A.157.157,0,0,1,63.679,122.974Zm.114,1.906h-.237v-1.626h.237Z" transform="translate(-28.819 -122.5)" fill="#231815"/>
        <path id="パス_138" data-name="パス 138" d="M66.636,124.4c0,.135.009.29.009.406h-.209l-.009-.281h-.009a.532.532,0,0,1-.5.31c-.351,0-.626-.329-.626-.822,0-.552.3-.871.664-.871a.476.476,0,0,1,.446.252h.009v-.977h.237V124.4Zm-.237-.581a.436.436,0,0,0-.418-.484c-.285,0-.465.29-.465.658,0,.339.152.639.456.639a.45.45,0,0,0,.418-.493v-.319Z" transform="translate(-29.536 -122.411)" fill="#231815"/>
        <path id="パス_139" data-name="パス 139" d="M69.138,122.974a.163.163,0,0,1-.152-.174.152.152,0,1,1,.3,0C69.29,122.906,69.233,122.974,69.138,122.974Zm.123,1.906h-.237v-1.626h.237Z" transform="translate(-31.042 -122.5)" fill="#231815"/>
        <path id="パス_140" data-name="パス 140" d="M72.151,125.267h-.237v-.958c0-.261-.085-.494-.361-.494a.428.428,0,0,0-.4.464v1h-.237v-1.21c0-.165-.01-.29-.01-.416h.209l.01.261h.009a.553.553,0,0,1,.494-.3c.19,0,.522.126.522.677Z" transform="translate(-31.824 -122.886)" fill="#231815"/>
        <path id="パス_141" data-name="パス 141" d="M75.643,123.635c-.009.116-.009.252-.009.445v.948c0,.281-.009.929-.731.929a.949.949,0,0,1-.484-.126l.066-.194a.833.833,0,0,0,.427.126c.285,0,.484-.155.484-.59v-.194h-.009a.508.508,0,0,1-.475.281c-.37,0-.626-.339-.626-.8,0-.561.332-.861.664-.861a.483.483,0,0,1,.465.281h.009l.009-.242Zm-.247.629a.429.429,0,0,0-.408-.464c-.266,0-.456.252-.456.648,0,.348.161.619.456.619a.43.43,0,0,0,.408-.474Z" transform="translate(-33.2 -122.88)" fill="#231815"/>
        <path id="パス_142" data-name="パス 142" d="M80.062,123.922a.552.552,0,0,1,.522-.31c.361,0,.626.329.626.832,0,.6-.332.871-.664.871a.524.524,0,0,1-.465-.261h-.01v.89h-.237v-1.771c0-.213-.009-.377-.009-.523h.209l.028.271Zm.019.7a.443.443,0,0,0,.427.484c.3,0,.465-.271.465-.658,0-.339-.161-.639-.456-.639a.485.485,0,0,0-.437.5Z" transform="translate(-35.455 -122.886)" fill="#231815"/>
        <path id="パス_143" data-name="パス 143" d="M84.155,123.848c-.028,0-.047-.01-.085-.01-.256,0-.38.261-.38.542v.881h-.237v-1.142c0-.174,0-.329-.01-.484h.209l.009.31h.009a.463.463,0,0,1,.418-.348c.028,0,.047.01.066.01Z" transform="translate(-36.928 -122.88)" fill="#231815"/>
        <path id="パス_144" data-name="パス 144" d="M86.734,124.867a2.513,2.513,0,0,0,.019.387h-.218l-.019-.213h-.01a.528.528,0,0,1-.456.242.435.435,0,0,1-.446-.464c0-.387.323-.6.892-.6,0-.135,0-.445-.351-.445a.624.624,0,0,0-.37.116l-.057-.174a.825.825,0,0,1,.465-.135c.437,0,.541.329.541.648v.639Zm-.228-.455c-.294,0-.655.048-.655.387,0,.213.123.3.266.3a.385.385,0,0,0,.389-.377Z" transform="translate(-37.808 -122.874)" fill="#231815"/>
        <path id="パス_145" data-name="パス 145" d="M89.939,125.2a.878.878,0,0,1-.418.1.742.742,0,0,1-.731-.832.8.8,0,0,1,.788-.871.86.86,0,0,1,.37.087l-.057.2a.582.582,0,0,0-.313-.087c-.351,0-.541.3-.541.648,0,.4.218.639.532.639a.842.842,0,0,0,.332-.077Z" transform="translate(-39.106 -122.88)" fill="#231815"/>
        <path id="パス_146" data-name="パス 146" d="M91.926,123.123l.228-.087v.377h.4v.194h-.4v.939c0,.2.057.319.209.319a.74.74,0,0,0,.161-.019l.009.194a.65.65,0,0,1-.228.039c-.37,0-.38-.358-.38-.532v-.929h-.237v-.194h.237Z" transform="translate(-40.286 -122.658)" fill="#231815"/>
        <path id="パス_147" data-name="パス 147" d="M94.466,122.974a.163.163,0,0,1-.152-.174.152.152,0,1,1,.3,0A.157.157,0,0,1,94.466,122.974Zm.114,1.906h-.237v-1.626h.237Z" transform="translate(-41.355 -122.5)" fill="#231815"/>
        <path id="パス_148" data-name="パス 148" d="M97.208,125.2a.878.878,0,0,1-.418.1.742.742,0,0,1-.731-.832.8.8,0,0,1,.788-.871.861.861,0,0,1,.37.087l-.057.2a.582.582,0,0,0-.313-.087c-.351,0-.541.3-.541.648,0,.4.218.639.532.639a.842.842,0,0,0,.332-.077Z" transform="translate(-42.065 -122.88)" fill="#231815"/>
        <path id="パス_149" data-name="パス 149" d="M100.182,124.867a2.518,2.518,0,0,0,.019.387h-.218l-.019-.213h-.009a.528.528,0,0,1-.456.242.435.435,0,0,1-.446-.464c0-.387.323-.6.892-.6,0-.135,0-.445-.351-.445a.624.624,0,0,0-.37.116l-.057-.174a.825.825,0,0,1,.465-.135c.437,0,.541.329.541.648v.639Zm-.228-.455c-.294,0-.655.048-.655.387,0,.213.123.3.266.3a.385.385,0,0,0,.389-.377v-.31Z" transform="translate(-43.284 -122.874)" fill="#231815"/>
        <path id="パス_150" data-name="パス 150" d="M102.652,124.792h-.237v-2.38h.237Z" transform="translate(-44.653 -122.411)" fill="#231815"/>
        <path id="パス_151" data-name="パス 151" d="M107.176,123.66l-.579,1.626h-.218l-.569-1.626h.247l.3.948c.047.145.085.281.123.416h.009c.038-.135.076-.271.123-.416l.3-.939h.256Z" transform="translate(-46.035 -122.905)" fill="#231815"/>
        <path id="パス_152" data-name="パス 152" d="M110.489,124.438c0,.61-.38.861-.721.861-.389,0-.693-.31-.693-.842,0-.552.323-.861.721-.861C110.214,123.6,110.489,123.935,110.489,124.438Zm-.7-.648c-.332,0-.465.348-.465.658,0,.358.19.648.465.648s.475-.29.475-.658C110.252,124.157,110.119,123.79,109.787,123.79Z" transform="translate(-47.365 -122.88)" fill="#231815"/>
        <path id="パス_153" data-name="パス 153" d="M113.73,125.2a.878.878,0,0,1-.418.1.742.742,0,0,1-.731-.832.8.8,0,0,1,.788-.871.86.86,0,0,1,.37.087l-.057.2a.581.581,0,0,0-.313-.087c-.351,0-.541.3-.541.648,0,.4.218.639.531.639a.842.842,0,0,0,.332-.077Z" transform="translate(-48.793 -122.88)" fill="#231815"/>
        <path id="パス_154" data-name="パス 154" d="M116.689,124.867a2.516,2.516,0,0,0,.019.387h-.218l-.019-.213h-.009a.528.528,0,0,1-.456.242.435.435,0,0,1-.446-.464c0-.387.323-.6.892-.6,0-.135,0-.445-.351-.445a.624.624,0,0,0-.37.116l-.057-.174a.825.825,0,0,1,.465-.135c.437,0,.541.329.541.648v.639Zm-.228-.455c-.294,0-.655.048-.655.387,0,.213.123.3.266.3a.385.385,0,0,0,.389-.377Z" transform="translate(-50.005 -122.874)" fill="#231815"/>
        <path id="パス_155" data-name="パス 155" d="M118.893,123.123l.228-.087v.377h.4v.194h-.4v.939c0,.2.057.319.209.319a.739.739,0,0,0,.161-.019l.019.194a.65.65,0,0,1-.228.039c-.37,0-.38-.358-.38-.532v-.929h-.237v-.194h.237v-.3Z" transform="translate(-51.27 -122.658)" fill="#231815"/>
        <path id="パス_156" data-name="パス 156" d="M121.41,122.974a.163.163,0,0,1-.152-.174.152.152,0,1,1,.3,0A.147.147,0,0,1,121.41,122.974Zm.123,1.906H121.3v-1.626h.237Z" transform="translate(-52.326 -122.5)" fill="#231815"/>
        <path id="パス_157" data-name="パス 157" d="M124.434,124.438c0,.61-.38.861-.721.861-.389,0-.693-.31-.693-.842,0-.552.323-.861.721-.861C124.159,123.6,124.434,123.935,124.434,124.438Zm-.7-.648c-.332,0-.465.348-.465.658,0,.358.19.648.465.648s.475-.29.475-.658C124.2,124.157,124.064,123.79,123.732,123.79Z" transform="translate(-53.043 -122.88)" fill="#231815"/>
        <path id="パス_158" data-name="パス 158" d="M127.929,125.267h-.237v-.958c0-.261-.085-.494-.361-.494a.428.428,0,0,0-.4.464v1H126.7v-1.21c0-.165-.009-.29-.009-.416h.209l.019.261h.01a.552.552,0,0,1,.494-.3c.19,0,.513.126.513.677v.977Z" transform="translate(-54.536 -122.886)" fill="#231815"/>
        <path id="パス_159" data-name="パス 159" d="M131.177,124.867a2.511,2.511,0,0,0,.019.387h-.218l-.019-.213h-.01a.528.528,0,0,1-.456.242.435.435,0,0,1-.446-.464c0-.387.323-.6.892-.6,0-.135,0-.445-.351-.445a.624.624,0,0,0-.37.116l-.057-.174a.825.825,0,0,1,.465-.135c.437,0,.541.329.541.648v.639Zm-.237-.455c-.285,0-.655.048-.655.387,0,.213.123.3.266.3a.385.385,0,0,0,.389-.377Z" transform="translate(-55.905 -122.874)" fill="#231815"/>
        <path id="パス_160" data-name="パス 160" d="M133.647,124.792h-.237v-2.38h.237Z" transform="translate(-57.274 -122.411)" fill="#231815"/>
        <path id="パス_161" data-name="パス 161" d="M138.036,124.867a2.511,2.511,0,0,0,.019.387h-.209l-.019-.213h-.01a.528.528,0,0,1-.456.242.435.435,0,0,1-.446-.464c0-.387.323-.6.892-.6,0-.135,0-.445-.351-.445a.625.625,0,0,0-.37.116l-.057-.174a.825.825,0,0,1,.465-.135c.437,0,.541.329.541.648Zm-.228-.455c-.285,0-.655.048-.655.387,0,.213.123.3.266.3a.385.385,0,0,0,.389-.377Z" transform="translate(-58.702 -122.874)" fill="#231815"/>
        <path id="パス_162" data-name="パス 162" d="M141.49,125.267h-.237v-.958c0-.261-.085-.494-.361-.494a.428.428,0,0,0-.4.464v1h-.237v-1.21c0-.165-.01-.29-.01-.416h.209l.019.261h.009a.553.553,0,0,1,.494-.3c.19,0,.512.126.512.677Z" transform="translate(-60.058 -122.886)" fill="#231815"/>
        <path id="パス_163" data-name="パス 163" d="M144.988,124.4c0,.135.009.29.009.406h-.209l-.009-.281h-.009a.532.532,0,0,1-.5.31c-.351,0-.626-.329-.626-.822,0-.552.3-.871.664-.871a.476.476,0,0,1,.446.252h.009v-.977H145V124.4Zm-.237-.581a.436.436,0,0,0-.418-.484c-.285,0-.465.29-.465.658,0,.339.152.639.456.639a.45.45,0,0,0,.418-.493v-.319Z" transform="translate(-61.44 -122.411)" fill="#231815"/>
        <path id="パス_164" data-name="パス 164" d="M149.145,123.123l.228-.087v.377h.4v.194h-.4v.939c0,.2.057.319.209.319a.74.74,0,0,0,.161-.019l.009.194a.65.65,0,0,1-.228.039c-.37,0-.38-.358-.38-.532v-.929h-.237v-.194h.237Z" transform="translate(-63.584 -122.658)" fill="#231815"/>
        <path id="パス_165" data-name="パス 165" d="M152.617,125.186a1.02,1.02,0,0,1-.484.1.725.725,0,0,1-.712-.823c0-.513.266-.881.683-.881.475,0,.588.455.588.745a.562.562,0,0,1-.01.135H151.64c0,.455.247.619.522.619a.816.816,0,0,0,.4-.087Zm-.152-.9c0-.223-.085-.5-.389-.5-.285,0-.408.281-.427.5Z" transform="translate(-64.608 -122.874)" fill="#231815"/>
        <path id="パス_166" data-name="パス 166" d="M155.82,125.2a.878.878,0,0,1-.418.1.742.742,0,0,1-.731-.832.8.8,0,0,1,.788-.871.861.861,0,0,1,.37.087l-.057.2a.581.581,0,0,0-.313-.087c-.351,0-.541.3-.541.648,0,.4.218.639.532.639a.842.842,0,0,0,.332-.077Z" transform="translate(-65.931 -122.88)" fill="#231815"/>
        <path id="パス_167" data-name="パス 167" d="M159.091,124.792h-.237v-.958c0-.261-.085-.493-.351-.493a.431.431,0,0,0-.408.455v1h-.237v-2.38h.237v1.006h.009a.57.57,0,0,1,.475-.29c.19,0,.513.126.513.677Z" transform="translate(-67.228 -122.411)" fill="#231815"/>
        <path id="パス_168" data-name="パス 168" d="M162.623,125.267h-.237v-.958c0-.261-.085-.494-.361-.494a.428.428,0,0,0-.4.464v1h-.237v-1.21c0-.165-.009-.29-.009-.416h.209l.019.261h.01a.553.553,0,0,1,.494-.3c.19,0,.512.126.512.677Z" transform="translate(-68.663 -122.886)" fill="#231815"/>
        <path id="パス_169" data-name="パス 169" d="M165.037,122.974a.163.163,0,0,1-.152-.174.152.152,0,1,1,.3,0A.147.147,0,0,1,165.037,122.974Zm.123,1.906h-.237v-1.626h.237Z" transform="translate(-70.09 -122.5)" fill="#231815"/>
        <path id="パス_170" data-name="パス 170" d="M167.8,125.2a.879.879,0,0,1-.418.1.742.742,0,0,1-.731-.832.8.8,0,0,1,.788-.871.86.86,0,0,1,.37.087l-.057.2a.582.582,0,0,0-.313-.087c-.351,0-.541.3-.541.648,0,.4.218.639.532.639a.842.842,0,0,0,.332-.077Z" transform="translate(-70.807 -122.88)" fill="#231815"/>
        <path id="パス_171" data-name="パス 171" d="M170.754,124.867a2.511,2.511,0,0,0,.019.387h-.218l-.019-.213h-.009a.528.528,0,0,1-.456.242.435.435,0,0,1-.446-.464c0-.387.323-.6.892-.6,0-.135,0-.445-.351-.445a.624.624,0,0,0-.37.116l-.057-.174a.825.825,0,0,1,.465-.135c.437,0,.541.329.541.648v.639Zm-.228-.455c-.285,0-.655.048-.655.387,0,.213.123.3.266.3a.385.385,0,0,0,.389-.377Z" transform="translate(-72.02 -122.874)" fill="#231815"/>
        <path id="パス_172" data-name="パス 172" d="M173.24,124.792H173v-2.38h.237Z" transform="translate(-73.395 -122.411)" fill="#231815"/>
        <path id="パス_173" data-name="パス 173" d="M176.65,123.123l.228-.087v.377h.4v.194h-.4v.939c0,.2.057.319.209.319a.739.739,0,0,0,.161-.019l.01.194a.65.65,0,0,1-.228.039c-.37,0-.38-.358-.38-.532v-.929h-.237v-.194h.237v-.3Z" transform="translate(-74.784 -122.658)" fill="#231815"/>
        <path id="パス_174" data-name="パス 174" d="M179.782,123.848c-.029,0-.047-.01-.085-.01-.256,0-.38.261-.38.542v.881h-.237v-1.142c0-.174,0-.329-.009-.484h.209l.009.31h.01a.463.463,0,0,1,.418-.348c.028,0,.047.01.066.01Z" transform="translate(-75.866 -122.88)" fill="#231815"/>
        <path id="パス_175" data-name="パス 175" d="M182.361,124.867a2.513,2.513,0,0,0,.019.387h-.218l-.019-.213h-.009a.528.528,0,0,1-.456.242.435.435,0,0,1-.446-.464c0-.387.323-.6.892-.6,0-.135,0-.445-.351-.445a.624.624,0,0,0-.37.116l-.057-.174a.825.825,0,0,1,.465-.135c.437,0,.541.329.541.648v.639Zm-.228-.455c-.285,0-.655.048-.655.387,0,.213.123.3.266.3a.385.385,0,0,0,.389-.377Z" transform="translate(-76.746 -122.874)" fill="#231815"/>
        <path id="パス_176" data-name="パス 176" d="M184.7,122.974a.163.163,0,0,1-.152-.174.152.152,0,1,1,.3,0C184.849,122.906,184.792,122.974,184.7,122.974Zm.123,1.906h-.237v-1.626h.237Z" transform="translate(-78.095 -122.5)" fill="#231815"/>
        <path id="パス_177" data-name="パス 177" d="M187.71,125.267h-.237v-.958c0-.261-.085-.494-.361-.494a.428.428,0,0,0-.4.464v1h-.237v-1.21c0-.165-.009-.29-.009-.416h.209l.019.261h.009a.552.552,0,0,1,.493-.3c.19,0,.513.126.513.677v.977Z" transform="translate(-78.878 -122.886)" fill="#231815"/>
        <path id="パス_178" data-name="パス 178" d="M190.125,122.974a.163.163,0,0,1-.152-.174.152.152,0,1,1,.3,0C190.277,122.906,190.22,122.974,190.125,122.974Zm.114,1.906H190v-1.626h.237Z" transform="translate(-80.305 -122.5)" fill="#231815"/>
        <path id="パス_179" data-name="パス 179" d="M193.137,125.267H192.9v-.958c0-.261-.085-.494-.361-.494a.428.428,0,0,0-.4.464v1H191.9v-1.21c0-.165-.009-.29-.009-.416h.209l.009.261h.009a.553.553,0,0,1,.494-.3c.19,0,.513.126.513.677v.977Z" transform="translate(-81.088 -122.886)" fill="#231815"/>
        <path id="パス_180" data-name="パス 180" d="M196.629,123.635c-.009.116-.009.252-.009.445v.948c0,.281-.009.929-.731.929a.949.949,0,0,1-.484-.126l.066-.194a.834.834,0,0,0,.427.126c.285,0,.484-.155.484-.59v-.194h-.009a.508.508,0,0,1-.475.281c-.37,0-.626-.339-.626-.8,0-.561.332-.861.664-.861a.483.483,0,0,1,.465.281h.009l.009-.242Zm-.247.629a.429.429,0,0,0-.408-.464c-.266,0-.456.252-.456.648,0,.348.161.619.456.619a.43.43,0,0,0,.408-.474Z" transform="translate(-82.463 -122.88)" fill="#231815"/>
        <path id="パス_181" data-name="パス 181" d="M198.922,125.967a.172.172,0,0,1,.171-.194c.095,0,.161.077.161.194a.169.169,0,0,1-.171.184C198.979,126.16,198.922,126.073,198.922,125.967Z" transform="translate(-83.949 -123.741)" fill="#231815"/>
      </g>
      <g id="グループ_68" data-name="グループ 68" transform="translate(0.005)">
        <path id="パス_182" data-name="パス 182" d="M133.052,62.85,119.907,49.439a.563.563,0,0,0-.9.019L115.826,52.7a.749.749,0,0,0,.028.793l10.212,10.412.237.242-8.694,8.863a.446.446,0,0,0-.095.5.471.471,0,0,0,.475.252l6.406.039a1.541,1.541,0,0,0,.892-.435L133,65.5A1.71,1.71,0,0,0,133.052,62.85Z" transform="translate(-50.078 -41.534)" fill="#040000"/>
        <path id="パス_183" data-name="パス 183" d="M88.794,47.856l13.145,13.4a.563.563,0,0,0,.9-.019L106.02,58a.749.749,0,0,0-.028-.793l-10.2-10.4-.237-.242,8.694-8.863a.446.446,0,0,0,.095-.5.471.471,0,0,0-.475-.252L97.46,36.9a1.541,1.541,0,0,0-.892.435L88.851,45.2A1.7,1.7,0,0,0,88.794,47.856Z" transform="translate(-38.858 -36.661)" fill="#040000"/>
        <path id="パス_184" data-name="パス 184" d="M186.525,62.857l-13.145-13.4a.563.563,0,0,0-.9.019L169.3,52.716a.749.749,0,0,0,.028.793L179.54,63.921l.237.242-8.694,8.863a.446.446,0,0,0-.095.5.471.471,0,0,0,.475.252l6.406.039a1.54,1.54,0,0,0,.892-.435l7.716-7.867A1.722,1.722,0,0,0,186.525,62.857Z" transform="translate(-71.851 -41.54)" fill="#040000"/>
        <path id="パス_185" data-name="パス 185" d="M142.267,47.856l13.145,13.4a.563.563,0,0,0,.9-.019L159.493,58a.749.749,0,0,0-.029-.793L149.252,46.8l-.237-.242,8.694-8.863a.447.447,0,0,0,.095-.5.471.471,0,0,0-.475-.252l-6.406-.039a1.541,1.541,0,0,0-.892.435L142.315,45.2A1.708,1.708,0,0,0,142.267,47.856Z" transform="translate(-60.631 -36.661)" fill="#040000"/>
        <g id="グループ_67" data-name="グループ 67" transform="translate(16.903)">
          <g id="グループ_66" data-name="グループ 66">
            <path id="パス_186" data-name="パス 186" d="M40.1,51.665l3.132-6.909-3.588-7.915c-.066-.135-.247-.339-.4-.339H33.942c-.256.019-.342.087-.4.252a.561.561,0,0,0,.038.5Z" transform="translate(-33.5 -36.502)" fill="#535253"/>
            <path id="パス_187" data-name="パス 187" d="M71.311,36.754c-.066-.164-.142-.232-.4-.252H65.6c-.152,0-.332.2-.4.339L55.765,57.665l-2.714-6-3.132,6.909,4.394,9.705a.78.78,0,0,0,.721.474H56.5a.78.78,0,0,0,.721-.474L71.273,37.248A.539.539,0,0,0,71.311,36.754Z" transform="translate(-40.186 -36.502)" fill="#535253"/>
          </g>
        </g>
        <path id="パス_188" data-name="パス 188" d="M36.112,36.754c-.066-.164-.142-.232-.4-.252H30.408c-.152,0-.332.2-.4.339L20.576,57.665,11.142,36.841c-.066-.135-.247-.339-.4-.339H5.428c-.256.019-.342.087-.4.252a.561.561,0,0,0,.038.5L19.124,68.289a.78.78,0,0,0,.721.474h1.462a.78.78,0,0,0,.721-.474L36.084,37.257A.59.59,0,0,0,36.112,36.754Z" transform="translate(-4.987 -36.502)" fill="#040000"/>
      </g>
    </g>
  </g>
</svg>
