<svg xmlns="http://www.w3.org/2000/svg" width="511.6" height="438.4" viewBox="0 0 511.6 438.4">
  <g id="top-icon-external-link-k" transform="translate(0 -36.6)">
    <g id="グループ_688" data-name="グループ 688">
      <path id="パス_530" data-name="パス 530" d="M392.9,292.4H374.6a8.9,8.9,0,0,0-9.2,9.2V393a45.751,45.751,0,0,1-45.7,45.7H82.2a44.259,44.259,0,0,1-32.3-13.4A44.1,44.1,0,0,1,36.5,393V155.3a45.751,45.751,0,0,1,45.7-45.7h201a8.9,8.9,0,0,0,9.2-9.2V82.2a8.9,8.9,0,0,0-9.2-9.2H82.2Q48.3,73,24.1,97.1-.05,121.4,0,155.3V392.8q0,33.9,24.1,58.1Q48.25,475.05,82.2,475H319.7q33.9,0,58.1-24.1c16.1-16.1,24.1-35.4,24.1-58.1V301.4a8.966,8.966,0,0,0-2.6-6.6A8.755,8.755,0,0,0,392.9,292.4Z" fill="#2e2e2e"/>
      <path id="パス_531" data-name="パス 531" d="M506.2,42a17.606,17.606,0,0,0-12.9-5.4H347.2A18.442,18.442,0,0,0,329,54.8a17.546,17.546,0,0,0,5.4,12.8l50.2,50.2L198.4,304.1a8.96,8.96,0,0,0,0,13.2l32.5,32.5a9.113,9.113,0,0,0,6.6,2.9,8.742,8.742,0,0,0,6.6-2.9L430.2,163.7l50.3,50.2a17.546,17.546,0,0,0,12.8,5.4,17.933,17.933,0,0,0,12.9-5.4,17.546,17.546,0,0,0,5.4-12.8V54.8A17.546,17.546,0,0,0,506.2,42Z" fill="#2e2e2e"/>
    </g>
  </g>
</svg>
