<?xml version="1.0" encoding="utf-8"?>
<!-- Generator: Adobe Illustrator 25.1.0, SVG Export Plug-In . SVG Version: 6.00 Build 0)  -->
<svg version="1.1" id="Capa_1" xmlns="http://www.w3.org/2000/svg" xmlns:xlink="http://www.w3.org/1999/xlink" x="0px" y="0px"
	 viewBox="0 0 548.2 548.2" style="enable-background:new 0 0 548.2 548.2;" xml:space="preserve">
<style type="text/css">
	.st0{fill:#FFFFFF;}
</style>
<g>
	<path class="st0" d="M524.2,297.1c-16-19.9-36.3-32.7-60.8-38.4c7.8-12,11.7-25.1,11.7-39.4c0-20.2-7.1-37.4-21.4-51.7
		c-14.3-14.3-31.5-21.4-51.7-21.4c-18.3,0-34.1,5.9-47.4,17.7c-11.2-27-29.1-48.9-53.5-65.7c-24.5-16.7-51.7-25.1-81.8-25.1
		c-40.3,0-74.8,14.3-103.4,42.8c-28.6,28.5-42.8,63-42.8,103.4c0,2.9,0.2,6.9,0.6,12.3c-22.1,10.3-39.9,25.8-53.4,46.7
		C6.8,299.1,0,322.1,0,347.2c0,35.2,12.5,65.3,37.5,90.4c25,25,55.2,37.5,90.4,37.5h310.6c30.3,0,56.1-10.7,77.5-32.1
		c21.4-21.4,32.1-47.2,32.1-77.5C548.2,339.8,540.2,317,524.2,297.1z"/>
</g>
</svg>
