<?xml version="1.0" encoding="utf-8"?>
<!-- Generator: Adobe Illustrator 25.1.0, SVG Export Plug-In . SVG Version: 6.00 Build 0)  -->
<svg version="1.1" id="Capa_1" xmlns="http://www.w3.org/2000/svg" xmlns:xlink="http://www.w3.org/1999/xlink" x="0px" y="0px"
	 viewBox="0 0 548.2 548.2" style="enable-background:new 0 0 548.2 548.2;" xml:space="preserve">
<style type="text/css">
	.st0{fill:#FFFFFF;}
</style>
<g>
	<g>
		<path class="st0" d="M534.8,68.2c-8.9-8.9-19.7-13.4-32.3-13.4H45.7c-12.6,0-23.3,4.5-32.3,13.4C4.5,77.2,0,87.9,0,100.5v347.2
			c0,12.6,4.5,23.3,13.4,32.3c9,8.9,19.7,13.4,32.3,13.4h456.8c12.6,0,23.3-4.5,32.3-13.4c8.9-8.9,13.4-19.7,13.4-32.3V100.5
			C548.2,87.9,543.7,77.2,534.8,68.2z M511.6,447.7c0,2.5-0.9,4.6-2.7,6.4c-1.8,1.8-4,2.7-6.4,2.7H45.7c-2.5,0-4.6-0.9-6.4-2.7
			c-1.8-1.8-2.7-3.9-2.7-6.4V100.5c0-2.5,0.9-4.6,2.7-6.4c1.8-1.8,4-2.7,6.4-2.7h456.8c2.5,0,4.6,0.9,6.4,2.7
			c1.8,1.8,2.7,3.9,2.7,6.4L511.6,447.7L511.6,447.7z"/>
		<path class="st0" d="M127.9,237.5c15.2,0,28.2-5.3,38.8-16c10.7-10.7,16-23.6,16-38.8c0-15.2-5.3-28.2-16-38.8
			c-10.7-10.7-23.6-16-38.8-16c-15.2,0-28.2,5.3-38.8,16c-10.7,10.7-16,23.6-16,38.8c0,15.2,5.3,28.2,16,38.8
			C99.7,232.2,112.7,237.5,127.9,237.5z"/>
		<polygon class="st0" points="210.1,319.8 164.5,274.1 73.1,365.4 73.1,420.3 475.1,420.3 475.1,292.4 356.3,173.6 		"/>
	</g>
</g>
</svg>
