<?xml version="1.0" encoding="utf-8"?>
<!-- Generator: Adobe Illustrator 25.1.0, SVG Export Plug-In . SVG Version: 6.00 Build 0)  -->
<svg version="1.1" id="Capa_1" xmlns="http://www.w3.org/2000/svg" xmlns:xlink="http://www.w3.org/1999/xlink" x="0px" y="0px"
	 viewBox="0 0 509.3 509.3" style="enable-background:new 0 0 509.3 509.3;" xml:space="preserve">
<style type="text/css">
	.st0{fill:#FFFFFF;}
</style>
<g>
	<g>
		<path class="st0" d="M396.3,310.9c-3.8-1.5-7.1-0.9-10,2L368,331.2c-1.7,1.7-2.6,3.8-2.6,6.3v36c0,12.6-4.5,23.3-13.4,32.3
			c-9,8.9-19.7,13.4-32.3,13.4H82.2c-12.6,0-23.3-4.5-32.3-13.4c-8.9-8.9-13.4-19.7-13.4-32.3V135.9c0-12.6,4.5-23.3,13.4-32.3
			c8.9-8.9,19.7-13.4,32.3-13.4h237.5c4.2,0,8.5,0.6,12.8,1.7c3.4,1.1,6.5,0.4,9.1-2.3l14-14c2.3-2.3,3.1-5,2.6-8.3
			c-0.6-3-2.3-5.2-5.1-6.6c-10.3-4.8-21.4-7.1-33.4-7.1H82.2c-22.6,0-42,8-58.1,24.1C8,93.9,0,113.2,0,135.9v237.5
			c0,22.6,8,42,24.1,58.1c16.1,16.1,35.5,24.1,58.1,24.1h237.5c22.6,0,42-8,58.1-24.1c16.1-16.1,24.1-35.5,24.1-58.1v-54.2
			C402,315.2,400.1,312.4,396.3,310.9z"/>
		<path class="st0" d="M182.7,300.4v82.2h82.2l191.9-191.9l-82.2-82.2L182.7,300.4z M253.5,355.2L253.5,355.2l-16,0v-27.4h-27.4v-16
			l33.1-33.1l43.4,43.4L253.5,355.2z M378.9,159L278.9,259c-3.2,3.2-6.4,3.3-9.4,0.3c-3-3-3-6.2,0.3-9.4l99.9-99.9
			c3.2-3.2,6.4-3.3,9.4-0.3S382.1,155.8,378.9,159z"/>
		<path class="st0" d="M501.3,107.3L458,64c-5.3-5.3-11.8-8-19.4-8c-7.6,0-14.1,2.7-19.4,8l-26.3,26.3l82.2,82.2l26.3-26.3
			c5.3-5.3,8-11.8,8-19.4S506.7,112.7,501.3,107.3z"/>
	</g>
</g>
</svg>
