<?xml version="1.0" encoding="utf-8"?>
<!-- Generator: Adobe Illustrator 25.1.0, SVG Export Plug-In . SVG Version: 6.00 Build 0)  -->
<svg version="1.1" id="レイヤー_1" xmlns="http://www.w3.org/2000/svg" xmlns:xlink="http://www.w3.org/1999/xlink" x="0px"
	 y="0px" viewBox="0 0 32 32" style="enable-background:new 0 0 32 32;" xml:space="preserve">
<style type="text/css">
	.st0{fill:#FFFFFF;}
</style>
<g id="Layer_40">
	<path class="st0" d="M28,24H4c-1.7,0-3-1.3-3-3V5c0-1.7,1.3-3,3-3h24c1.7,0,3,1.3,3,3v16C31,22.7,29.7,24,28,24z M4,4
		C3.4,4,3,4.4,3,5v16c0,0.6,0.4,1,1,1h24c0.6,0,1-0.4,1-1V5c0-0.6-0.4-1-1-1H4z"/>
	<path class="st0" d="M21,30H11c-0.6,0-1-0.4-1-1c0-0.1,0-0.1,0-0.2l1-6c0.1-0.5,0.5-0.8,1-0.8h8c0.5,0,0.9,0.4,1,0.8l1,6
		c0.1,0.5-0.3,1.1-0.8,1.1C21.1,30,21.1,30,21,30z M12.2,28h7.6l-0.7-4h-6.3L12.2,28z"/>
	<path class="st0" d="M24,30H8c-0.6,0-1-0.4-1-1s0.4-1,1-1h16c0.6,0,1,0.4,1,1S24.6,30,24,30z"/>
	<path class="st0" d="M30,19H2c-0.6,0-1-0.4-1-1s0.4-1,1-1h28c0.6,0,1,0.4,1,1S30.6,19,30,19z"/>
</g>
</svg>
