<?xml version="1.0" encoding="utf-8"?>
<!-- Generator: Adobe Illustrator 25.1.0, SVG Export Plug-In . SVG Version: 6.00 Build 0)  -->
<svg version="1.1" id="レイヤー_1" xmlns="http://www.w3.org/2000/svg" xmlns:xlink="http://www.w3.org/1999/xlink" x="0px"
	 y="0px" viewBox="0 0 32 32" style="enable-background:new 0 0 32 32;" xml:space="preserve">
<style type="text/css">
	.st0{fill:#FFFFFF;}
</style>
<g id="Layer_16">
	<path class="st0" d="M30,28H2c-0.6,0-1-0.4-1-1V5c0-0.6,0.4-1,1-1h28c0.6,0,1,0.4,1,1v22C31,27.6,30.6,28,30,28z M3,26h26V6H3V26z"
		/>
	<path class="st0" d="M16,17.4c-0.7,0-1.4-0.3-1.9-0.7L1.4,5.8c-0.4-0.4-0.5-1-0.1-1.4s1-0.5,1.4-0.1l12.7,10.9
		c0.4,0.3,0.9,0.3,1.3,0L29.4,4.2c0.4-0.4,1.1-0.3,1.4,0.1c0.4,0.4,0.3,1.1-0.1,1.4l0,0L18,16.6C17.4,17.1,16.7,17.4,16,17.4z"/>
	<rect x="1.1" y="20" transform="matrix(0.8321 -0.5547 0.5547 0.8321 -10.5561 7.1304)" class="st0" width="10.8" height="2"/>
	<rect x="24.5" y="15.6" transform="matrix(0.5547 -0.8321 0.8321 0.5547 -6.12 30.5675)" class="st0" width="2" height="10.8"/>
</g>
</svg>
