<?xml version="1.0" encoding="utf-8"?>
<!-- Generator: Adobe Illustrator 25.1.0, SVG Export Plug-In . SVG Version: 6.00 Build 0)  -->
<svg version="1.1" id="レイヤー_1" xmlns="http://www.w3.org/2000/svg" xmlns:xlink="http://www.w3.org/1999/xlink" x="0px"
	 y="0px" viewBox="0 0 25 25" style="enable-background:new 0 0 25 25;" xml:space="preserve">
<style type="text/css">
	.st0{fill:#FFFFFF;}
</style>
<g id="マスクグループ_3" transform="translate(-1744 -57)">
	<path id="Twitter_Rounded_Solid_icon-icons.com_61561" class="st0" d="M1756.5,57c-6.9,0-12.5,5.6-12.5,12.5s5.6,12.5,12.5,12.5
		s12.5-5.6,12.5-12.5l0,0C1769,62.6,1763.4,57,1756.5,57z M1762.6,66.4c0.1,1.4-0.1,2.8-0.8,4.1c-1.3,3-4.1,5-7.3,5.3
		c-2,0.2-4-0.3-5.6-1.4c1.6,0.2,3.3-0.3,4.6-1.3c-1.3,0-2.5-0.9-2.9-2.2c0.5,0.1,0.9,0.1,1.4,0c-1.4-0.4-2.5-1.6-2.5-3.1
		c0.4,0.2,0.9,0.4,1.5,0.4c-1.4-0.9-1.8-2.8-1-4.2c3.2,3.5,6.5,3.3,6.5,3.3l0,0c-0.4-1.7,0.6-3.4,2.3-3.8c1.1-0.3,2.3,0.1,3.1,0.9
		l0,0c0.7-0.1,1.4-0.3,1.9-0.7c-0.2,0.7-0.7,1.3-1.4,1.6l0,0c0.4-0.1,1.4-0.4,1.7-0.4C1763.8,65.5,1763.2,66,1762.6,66.4
		L1762.6,66.4z"/>
</g>
</svg>
