<?xml version="1.0" encoding="utf-8"?>
<!-- Generator: Adobe Illustrator 25.1.0, SVG Export Plug-In . SVG Version: 6.00 Build 0)  -->
<svg version="1.1" id="レイヤー_1" xmlns="http://www.w3.org/2000/svg" xmlns:xlink="http://www.w3.org/1999/xlink" x="0px"
	 y="0px" viewBox="0 0 32 32" style="enable-background:new 0 0 32 32;" xml:space="preserve">
<style type="text/css">
	.st0{fill:#4E9BCB;}
</style>
<g id="Layer_10">
	<path class="st0" d="M17,31h-2c-1.5,0-2.8-1.1-3-2.6c-0.7-0.2-1.3-0.5-1.9-0.8c-1.2,1-2.9,0.8-4-0.2l-1.4-1.4
		c-1.1-1.1-1.2-2.8-0.2-4c-0.3-0.6-0.6-1.2-0.8-1.9C2.1,19.8,1,18.5,1,17v-2c0-1.5,1.1-2.8,2.6-3c0.2-0.7,0.5-1.3,0.8-1.9
		c-1-1.2-0.8-2.9,0.2-4l1.4-1.4c1.1-1.1,2.8-1.2,4-0.2c0.6-0.3,1.2-0.6,1.9-0.8C12.2,2.1,13.5,1,15,1h2c1.5,0,2.8,1.1,3,2.6
		c0.7,0.2,1.3,0.5,2,0.8c1.2-1,2.9-0.8,4,0.2l1.4,1.4c1.1,1.1,1.2,2.8,0.2,4c0.3,0.6,0.6,1.3,0.8,1.9c1.5,0.2,2.6,1.4,2.6,2.9v2
		c0,1.5-1.1,2.8-2.6,3c-0.2,0.7-0.5,1.3-0.8,2c1,1.2,0.8,2.9-0.2,4l-1.4,1.4c-1.1,1.1-2.8,1.2-4,0.2c-0.6,0.3-1.3,0.6-2,0.8
		C19.8,29.9,18.5,31,17,31z M9.9,25.3c0.2,0,0.4,0,0.5,0.1c0.9,0.5,1.8,0.9,2.8,1.2c0.5,0.1,0.8,0.5,0.8,1V28c0,0.6,0.4,1,1,1h2
		c0.6,0,1-0.4,1-1v-0.4c0-0.5,0.3-0.9,0.8-1c1-0.3,1.9-0.6,2.8-1.2c0.4-0.2,0.9-0.2,1.2,0.1l0.3,0.3c0.4,0.4,1,0.4,1.4,0
		c0,0,0,0,0,0l1.4-1.4c0.4-0.4,0.4-1,0-1.4c0,0,0,0,0,0l-0.3-0.3c-0.3-0.3-0.4-0.8-0.1-1.2c0.5-0.9,0.9-1.8,1.2-2.8
		c0.1-0.5,0.5-0.8,1-0.8H28c0.6,0,1-0.4,1-1v-2c0-0.6-0.4-1-1-1h-0.4c-0.5,0-0.9-0.3-1-0.8c-0.3-1-0.6-1.9-1.2-2.8
		c-0.2-0.4-0.2-0.9,0.1-1.2l0.3-0.3c0.4-0.4,0.4-1,0-1.4c0,0,0,0,0,0l-1.4-1.4c-0.4-0.4-1-0.4-1.4,0c0,0,0,0,0,0l-0.3,0.3
		c-0.3,0.3-0.8,0.4-1.2,0.2c-0.9-0.5-1.8-0.9-2.8-1.2c-0.5-0.1-0.8-0.5-0.8-1V4c0-0.6-0.4-1-1-1h-2c-0.6,0-1,0.4-1,1v0.4
		c0,0.5-0.3,0.9-0.8,1c-1,0.3-1.9,0.6-2.8,1.2C10,6.8,9.5,6.7,9.2,6.4L8.9,6.1c-0.4-0.4-1-0.4-1.4,0c0,0,0,0,0,0L6.1,7.5
		c-0.4,0.4-0.4,1,0,1.4c0,0,0,0,0,0l0.3,0.3c0.3,0.3,0.4,0.8,0.2,1.2c-0.5,0.9-0.9,1.8-1.2,2.8c-0.1,0.5-0.5,0.8-1,0.8H4
		c-0.6,0-1,0.4-1,1v2c0,0.6,0.4,1,1,1h0.4c0.5,0,0.9,0.3,1,0.8c0.3,1,0.6,1.9,1.2,2.8c0.2,0.4,0.2,0.9-0.2,1.2l-0.3,0.3
		c-0.4,0.4-0.4,1,0,1.4c0,0,0,0,0,0l1.4,1.4c0.4,0.4,1,0.4,1.4,0c0,0,0,0,0,0l0.3-0.3C9.4,25.4,9.6,25.3,9.9,25.3z"/>
	<path class="st0" d="M16,23c-3.9,0-7-3.1-7-7s3.1-7,7-7s7,3.1,7,7S19.9,23,16,23z M16,11c-2.8,0-5,2.2-5,5s2.2,5,5,5s5-2.2,5-5
		S18.8,11,16,11z"/>
</g>
</svg>
